<svg width="220" height="627" viewBox="0 0 220 627" fill="none" xmlns="http://www.w3.org/2000/svg">
<path d="M193.979 529.016C187.661 539.775 184.602 549.311 169.477 574.518L172.978 527.016C162.653 491.657 154.477 474.013 131.975 474.513C111.974 481.513 104.307 512.515 99.4735 520.015C83.352 562.875 88.7724 548.531 78.0393 572.25C77.672 573.062 77.0551 573.809 76.3277 574.324C35.0748 603.501 15.7205 616.696 7.16202 622.281C2.78694 625.137 2.76332 623.169 5.29219 618.598L14.4627 602.02L24.9723 584.519L46.4734 543.517C48.9487 540.042 100.722 456.715 52.033 367.924C51.3685 366.712 51.2092 365.233 51.6232 363.915C65.8922 318.469 69.9751 307.511 70.4677 308.004C79.506 337.546 79.2103 347.851 74.9679 363.007L86.4686 379.508L121.47 341.006L151.972 341.006L167.473 362.007C181.157 346.01 185.71 337.23 192.838 321.799C190.042 290.537 192.991 271.903 195.975 238L219.588 329.989C219.842 330.976 219.795 332.003 219.429 332.954C205.988 367.893 170.711 417.709 187.478 468.013C191.158 479.051 195.127 486.265 200.739 492.319C204.563 496.445 206.885 502.03 204.967 507.319C201.67 516.408 196.807 524.199 193.979 529.016Z" fill="#FF0000"/>
<path d="M193.982 529.018C187.664 539.777 184.605 549.313 169.48 574.52L172.981 527.018C162.656 491.659 154.48 474.015 131.978 474.515C111.977 481.515 104.31 512.517 99.4764 520.017C83.355 562.877 88.7753 548.533 78.0422 572.252C77.6749 573.064 77.058 573.811 76.3307 574.326C35.0778 603.503 15.7234 616.698 7.16495 622.283C2.78987 625.139 2.76625 623.171 5.29512 618.6L14.4656 602.022L24.9752 584.521L46.4764 543.519C48.9516 540.043 100.725 456.717 52.0359 367.926C51.3715 366.714 51.2121 365.235 51.6261 363.917C65.8951 318.471 69.9781 307.513 70.4706 308.006C79.5089 337.548 79.2132 347.853 74.9709 363.009L86.4715 379.51L121.473 341.008L151.975 341.008L167.476 362.009C181.16 346.012 185.713 337.232 192.841 321.801C190.045 290.539 192.994 271.905 195.978 238.002L219.591 329.991C219.845 330.978 219.798 332.005 219.432 332.956C205.991 367.895 170.714 417.711 187.481 468.015C191.161 479.053 195.13 486.267 200.742 492.321C204.566 496.447 206.888 502.032 204.97 507.321C201.673 516.41 196.81 524.201 193.982 529.018Z" fill="url(#paint0_linear_709_990)"/>
<path d="M193.982 529.018C187.664 539.777 184.605 549.313 169.48 574.52L172.981 527.018C162.656 491.659 154.48 474.015 131.978 474.515C111.977 481.515 104.31 512.517 99.4764 520.017C83.355 562.877 88.7753 548.533 78.0422 572.252C77.6749 573.064 77.058 573.811 76.3307 574.326C35.0778 603.503 15.7234 616.698 7.16495 622.283C2.78987 625.139 2.76625 623.171 5.29512 618.6L14.4656 602.022L24.9752 584.521L46.4764 543.519C48.9516 540.043 100.725 456.717 52.0359 367.926C51.3715 366.714 51.2121 365.235 51.6261 363.916C65.8951 318.471 69.9781 307.513 70.4706 308.006C79.5089 337.548 79.2132 347.853 74.9709 363.009L86.4715 379.51L121.473 341.007L151.975 341.007L167.476 362.009C181.16 346.012 185.713 337.232 192.841 321.801C190.045 290.539 192.994 271.905 195.978 238.002L219.591 329.991C219.845 330.978 219.798 332.005 219.432 332.956C205.991 367.895 170.714 417.711 187.481 468.015C191.161 479.053 195.13 486.267 200.742 492.321C204.566 496.447 206.888 502.032 204.97 507.321C201.673 516.41 196.81 524.201 193.982 529.018Z" fill="url(#paint1_linear_709_990)"/>
<rect x="175.318" y="472.594" width="8.75" height="17.75" rx="2.875" transform="rotate(-24 175.318 472.594)" fill="black" stroke="#2E2E2E" stroke-width="0.25"/>
<path d="M183.507 474.765L186.355 481.16C186.888 482.358 186.349 483.762 185.151 484.295C183.953 484.829 182.549 484.29 182.015 483.092L179.168 476.697C178.635 475.499 179.174 474.095 180.372 473.561C181.57 473.028 182.974 473.567 183.507 474.765Z" fill="url(#paint2_linear_709_990)" stroke="#2E2E2E" stroke-width="0.25"/>
<circle cx="165.99" cy="430" r="4.875" fill="black" stroke="#2E2E2E" stroke-width="0.25"/>
<circle cx="165.993" cy="430" r="3.20833" fill="black" stroke="#2E2E2E" stroke-width="0.25"/>
<circle cx="169.99" cy="445" r="4.875" fill="black" stroke="#2E2E2E" stroke-width="0.25"/>
<circle cx="169.993" cy="445" r="3.20833" fill="black" stroke="#2E2E2E" stroke-width="0.25"/>
<circle cx="174.99" cy="461" r="4.875" fill="black" stroke="#2E2E2E" stroke-width="0.25"/>
<circle cx="174.993" cy="461" r="3.20833" fill="black" stroke="#2E2E2E" stroke-width="0.25"/>
<path d="M121.49 341L121.49 99L127.99 99L151.49 99L151.49 341L121.49 341Z" fill="#1C0500"/>
<line x1="121.99" y1="116.5" x2="150.99" y2="116.5" stroke="white"/>
<line x1="121.99" y1="150" x2="150.99" y2="150" stroke="white"/>
<line x1="121.99" y1="164.75" x2="150.99" y2="164.75" stroke="white"/>
<line x1="121.99" y1="179.75" x2="150.99" y2="179.75" stroke="white"/>
<line x1="121.99" y1="192.75" x2="150.99" y2="192.75" stroke="white"/>
<line x1="121.99" y1="205.75" x2="150.99" y2="205.75" stroke="white"/>
<line x1="121.99" y1="217.75" x2="150.99" y2="217.75" stroke="white"/>
<line x1="121.99" y1="229.5" x2="150.99" y2="229.5" stroke="white"/>
<line x1="121.99" y1="240" x2="150.99" y2="240" stroke="white"/>
<line x1="121.99" y1="250" x2="150.99" y2="250" stroke="white"/>
<line x1="121.99" y1="259.5" x2="150.99" y2="259.5" stroke="white"/>
<line x1="121.99" y1="268.5" x2="150.99" y2="268.5" stroke="white"/>
<line x1="121.99" y1="276.5" x2="150.99" y2="276.5" stroke="white"/>
<line x1="121.99" y1="285" x2="150.99" y2="285" stroke="white"/>
<line x1="121.99" y1="292" x2="150.99" y2="292" stroke="white"/>
<line x1="121.99" y1="299" x2="150.99" y2="299" stroke="white"/>
<line x1="121.99" y1="305.5" x2="150.99" y2="305.5" stroke="white"/>
<line x1="121.99" y1="312" x2="150.99" y2="312" stroke="white"/>
<line x1="121.99" y1="317" x2="150.99" y2="317" stroke="white"/>
<line x1="121.99" y1="323" x2="150.99" y2="323" stroke="white"/>
<line x1="121.99" y1="328" x2="150.99" y2="328" stroke="white"/>
<path d="M121.99 332.5L150.99 332.5" stroke="white"/>
<line x1="121.99" y1="337" x2="150.99" y2="337" stroke="white"/>
<line x1="121.99" y1="133.5" x2="150.99" y2="133.5" stroke="white"/>
<path d="M136.49 145L147.316 139.75L125.665 139.75L136.49 145Z" fill="white"/>
<path d="M136.49 175L147.316 169.75L125.665 169.75L136.49 175Z" fill="white"/>
<path d="M136.49 202L147.316 196.75L125.665 196.75L136.49 202Z" fill="white"/>
<path d="M136.49 227L147.316 221.75L125.665 221.75L136.49 227Z" fill="white"/>
<path d="M135.919 257L143.651 253.25L128.186 253.25L135.919 257Z" fill="white"/>
<path d="M135.919 283L143.651 279.25L128.186 279.25L135.919 283Z" fill="white"/>
<path d="M135.919 297.5L143.651 293.75L128.186 293.75L135.919 297.5Z" fill="white"/>
<path d="M135.635 310.5L141.39 307.709L129.88 307.709L135.635 310.5Z" fill="white"/>
<path d="M135.635 321.5L141.39 318.709L129.88 318.709L135.635 321.5Z" fill="white"/>
<path d="M136.455 336L140.321 334.125L132.588 334.125L136.455 336Z" fill="white"/>
<rect x="121.49" y="73" width="30" height="26" fill="black"/>
<path d="M119.204 96.5C161.205 75 157.205 72.5 162.204 1.00001C145.412 38.2951 116.205 51.5 119.204 96.5Z" fill="#FF0000" stroke="black"/>
<path d="M119.257 97.1703C161.258 75.6704 157.258 73.1704 162.257 1.67037C145.465 38.9654 116.258 52.1704 119.257 97.1703Z" fill="url(#paint3_linear_709_990)"/>
<circle cx="125.49" cy="74.5" r="3.375" fill="black" stroke="#2E2E2E" stroke-width="0.25"/>
<circle cx="125.492" cy="74.5" r="2.20833" fill="black" stroke="#2E2E2E" stroke-width="0.25"/>
<circle cx="128.49" cy="64.5" r="3.375" fill="black" stroke="#2E2E2E" stroke-width="0.25"/>
<circle cx="128.492" cy="64.5" r="2.20833" fill="black" stroke="#2E2E2E" stroke-width="0.25"/>
<circle cx="133.49" cy="55.5" r="3.375" fill="black" stroke="#2E2E2E" stroke-width="0.25"/>
<circle cx="133.492" cy="55.5" r="2.20833" fill="black" stroke="#2E2E2E" stroke-width="0.25"/>
<circle cx="139.49" cy="46.5" r="3.375" fill="black" stroke="#2E2E2E" stroke-width="0.25"/>
<circle cx="139.492" cy="46.5" r="2.20833" fill="black" stroke="#2E2E2E" stroke-width="0.25"/>
<circle cx="145.49" cy="37.5" r="3.375" fill="black" stroke="#2E2E2E" stroke-width="0.25"/>
<circle cx="145.492" cy="37.5" r="2.20833" fill="black" stroke="#2E2E2E" stroke-width="0.25"/>
<circle cx="152.49" cy="28.5" r="3.375" fill="black" stroke="#2E2E2E" stroke-width="0.25"/>
<circle cx="152.492" cy="28.5" r="2.20833" fill="black" stroke="#2E2E2E" stroke-width="0.25"/>
<rect x="118.24" y="354.25" width="35.5" height="15.5" rx="0.75" fill="black" stroke="black" stroke-width="0.5"/>
<rect x="118.24" y="392.25" width="35.5" height="15.5" rx="0.75" fill="black" stroke="black" stroke-width="0.5"/>
<rect x="117.99" y="418.25" width="36.5" height="18" rx="0.75" fill="black" stroke="black" stroke-width="0.5"/>
<rect x="121.865" y="419.125" width="3.75" height="15.25" rx="0.875" fill="black" stroke="#2E2E2E" stroke-width="0.25"/>
<rect x="131.865" y="419.125" width="3.75" height="15.25" rx="0.875" fill="black" stroke="#2E2E2E" stroke-width="0.25"/>
<rect x="141.865" y="419.125" width="3.75" height="15.25" rx="0.875" fill="black" stroke="#2E2E2E" stroke-width="0.25"/>
<rect x="146.865" y="419.125" width="3.75" height="15.25" rx="0.875" fill="black" stroke="#2E2E2E" stroke-width="0.25"/>
<rect x="126.865" y="419.125" width="3.75" height="15.25" rx="0.875" fill="black" stroke="#2E2E2E" stroke-width="0.25"/>
<rect x="136.865" y="419.125" width="3.75" height="15.25" rx="0.875" fill="black" stroke="#2E2E2E" stroke-width="0.25"/>
<line x1="123.741" y1="98.9881" x2="124.741" y2="77.9881" stroke="#999999" stroke-width="0.5"/>
<line x1="128.74" y1="99" x2="128.74" y2="68" stroke="#999999" stroke-width="0.5"/>
<line x1="133.74" y1="99" x2="133.74" y2="59" stroke="#999999" stroke-width="0.5"/>
<line x1="138.74" y1="98.9949" x2="139.74" y2="49.9949" stroke="#999999" stroke-width="0.5"/>
<line x1="143.74" y1="98.9914" x2="145.74" y2="40.9914" stroke="#999999" stroke-width="0.5"/>
<line x1="148.74" y1="98.9888" x2="151.74" y2="31.9888" stroke="#999999" stroke-width="0.5"/>
<line x1="123.74" y1="419" x2="123.74" y2="99" stroke="#999999" stroke-width="0.5"/>
<line x1="128.74" y1="419" x2="128.74" y2="99" stroke="#999999" stroke-width="0.5"/>
<line x1="133.74" y1="419" x2="133.74" y2="99" stroke="#999999" stroke-width="0.5"/>
<line x1="138.74" y1="419" x2="138.74" y2="99" stroke="#999999" stroke-width="0.5"/>
<line x1="143.74" y1="419" x2="143.74" y2="99" stroke="#999999" stroke-width="0.5"/>
<line x1="148.74" y1="419" x2="148.74" y2="99" stroke="#999999" stroke-width="0.5"/>
<defs>
<linearGradient id="paint0_linear_709_990" x1="53.0088" y1="480.505" x2="236.979" y2="370.106" gradientUnits="userSpaceOnUse">
<stop stop-opacity="0.73"/>
<stop offset="0.499713" stop-opacity="0"/>
<stop offset="1" stop-opacity="0.73"/>
</linearGradient>
<linearGradient id="paint1_linear_709_990" x1="35.7443" y1="338.849" x2="253.004" y2="539.252" gradientUnits="userSpaceOnUse">
<stop stop-opacity="0.73"/>
<stop offset="0.499713" stop-opacity="0"/>
<stop offset="1" stop-opacity="0.73"/>
</linearGradient>
<linearGradient id="paint2_linear_709_990" x1="180.321" y1="473.447" x2="182.725" y2="478.348" gradientUnits="userSpaceOnUse">
<stop stop-color="#2E2E2E"/>
<stop offset="1"/>
</linearGradient>
<linearGradient id="paint3_linear_709_990" x1="140.65" y1="1.67037" x2="140.65" y2="97.1703" gradientUnits="userSpaceOnUse">
<stop/>
<stop offset="1" stop-color="#24008A" stop-opacity="0"/>
</linearGradient>
</defs>
</svg>
