<svg width="219" height="627" viewBox="0 0 219 627" fill="none" xmlns="http://www.w3.org/2000/svg">
<path d="M192.988 529.016C186.671 539.775 183.611 549.311 168.487 574.518L171.987 527.016C161.663 491.657 153.486 474.013 130.985 474.513C110.984 481.513 103.317 512.515 98.4832 520.015C82.3618 562.875 87.7822 548.531 77.0491 572.25C76.6818 573.062 76.0649 573.809 75.3375 574.324C34.0846 603.501 14.7303 616.696 6.1718 622.281C1.79672 625.137 1.7731 623.169 4.30197 618.598L13.4725 602.02L23.982 584.519L45.4832 543.517C47.9585 540.042 99.7318 456.715 51.0427 367.924C50.3783 366.712 50.219 365.233 50.6329 363.915C64.9019 318.469 68.9849 307.511 69.4775 308.004C78.5157 337.546 78.22 347.851 73.9777 363.007L85.4783 379.508L120.48 341.006H150.982L166.483 362.007C180.167 346.01 184.72 337.23 191.848 321.799C189.052 290.537 192.001 271.903 194.984 238L218.598 329.989C218.851 330.976 218.805 332.003 218.439 332.954C204.998 367.893 169.72 417.709 186.488 468.013C190.168 479.051 194.136 486.265 199.748 492.319C203.573 496.445 205.895 502.03 203.977 507.319C200.68 516.408 195.817 524.199 192.988 529.016Z" fill="#1A1A1A"/>
<path d="M192.991 529.018C186.674 539.777 183.614 549.313 168.49 574.52L171.99 527.018C161.666 491.659 153.489 474.015 130.988 474.515C110.987 481.515 103.32 512.517 98.4862 520.017C82.3648 562.877 87.7851 548.533 77.052 572.252C76.6847 573.064 76.0678 573.811 75.3404 574.326C34.0876 603.503 14.7332 616.698 6.17473 622.283C1.79965 625.139 1.77603 623.171 4.3049 618.6L13.4754 602.022L23.985 584.521L45.4862 543.519C47.9614 540.043 99.7347 456.717 51.0457 367.926C50.3812 366.714 50.2219 365.235 50.6359 363.917C64.9049 318.471 68.9878 307.513 69.4804 308.006C78.5187 337.548 78.223 347.853 73.9806 363.009L85.4813 379.51L120.483 341.008H150.985L166.486 362.009C180.169 346.012 184.723 337.232 191.851 321.801C189.055 290.539 192.004 271.905 194.987 238.002L218.601 329.991C218.854 330.978 218.808 332.005 218.442 332.956C205.001 367.895 169.723 417.711 186.491 468.015C190.171 479.053 194.139 486.267 199.751 492.321C203.576 496.447 205.898 502.032 203.98 507.321C200.683 516.41 195.82 524.201 192.991 529.018Z" fill="url(#paint0_linear_709_252)"/>
<path d="M192.991 529.018C186.674 539.777 183.614 549.313 168.49 574.52L171.99 527.018C161.666 491.659 153.489 474.015 130.988 474.515C110.987 481.515 103.32 512.517 98.4862 520.017C82.3648 562.877 87.7851 548.533 77.052 572.252C76.6847 573.064 76.0678 573.811 75.3404 574.326C34.0876 603.503 14.7332 616.698 6.17473 622.283C1.79965 625.139 1.77603 623.171 4.3049 618.6L13.4754 602.022L23.985 584.521L45.4862 543.519C47.9614 540.043 99.7347 456.717 51.0457 367.926C50.3812 366.714 50.2219 365.235 50.6359 363.916C64.9049 318.471 68.9878 307.513 69.4804 308.006C78.5187 337.548 78.223 347.853 73.9806 363.009L85.4813 379.51L120.483 341.007H150.985L166.486 362.009C180.169 346.012 184.723 337.232 191.851 321.801C189.055 290.539 192.004 271.905 194.987 238.002L218.601 329.991C218.854 330.978 218.808 332.005 218.442 332.956C205.001 367.895 169.723 417.711 186.491 468.015C190.171 479.053 194.139 486.267 199.751 492.321C203.576 496.447 205.898 502.032 203.98 507.321C200.683 516.41 195.82 524.201 192.991 529.018Z" fill="url(#paint1_linear_709_252)"/>
<rect x="174.328" y="472.594" width="8.75" height="17.75" rx="2.875" transform="rotate(-24 174.328 472.594)" fill="black" stroke="#2E2E2E" stroke-width="0.25"/>
<path d="M182.517 474.765L185.364 481.16C185.898 482.358 185.359 483.762 184.161 484.295C182.962 484.829 181.559 484.29 181.025 483.092L178.178 476.697C177.644 475.499 178.183 474.095 179.382 473.561C180.58 473.028 181.984 473.567 182.517 474.765Z" fill="url(#paint2_linear_709_252)" stroke="#2E2E2E" stroke-width="0.25"/>
<circle cx="165" cy="430" r="4.875" fill="black" stroke="#2E2E2E" stroke-width="0.25"/>
<circle cx="165.002" cy="430" r="3.20833" fill="black" stroke="#2E2E2E" stroke-width="0.25"/>
<circle cx="169" cy="445" r="4.875" fill="black" stroke="#2E2E2E" stroke-width="0.25"/>
<circle cx="169.002" cy="445" r="3.20833" fill="black" stroke="#2E2E2E" stroke-width="0.25"/>
<circle cx="174" cy="461" r="4.875" fill="black" stroke="#2E2E2E" stroke-width="0.25"/>
<circle cx="174.002" cy="461" r="3.20833" fill="black" stroke="#2E2E2E" stroke-width="0.25"/>
<path d="M120.5 341V99H127H150.5V341H120.5Z" fill="#1C0500"/>
<line x1="121" y1="116.5" x2="150" y2="116.5" stroke="#CACACA"/>
<line x1="121" y1="150" x2="150" y2="150" stroke="#CACACA"/>
<line x1="121" y1="164.75" x2="150" y2="164.75" stroke="#CACACA"/>
<line x1="121" y1="179.75" x2="150" y2="179.75" stroke="#CACACA"/>
<line x1="121" y1="192.75" x2="150" y2="192.75" stroke="#CACACA"/>
<line x1="121" y1="205.75" x2="150" y2="205.75" stroke="#CACACA"/>
<line x1="121" y1="217.75" x2="150" y2="217.75" stroke="#CACACA"/>
<line x1="121" y1="229.5" x2="150" y2="229.5" stroke="#CACACA"/>
<line x1="121" y1="240" x2="150" y2="240" stroke="#CACACA"/>
<line x1="121" y1="250" x2="150" y2="250" stroke="#CACACA"/>
<line x1="121" y1="259.5" x2="150" y2="259.5" stroke="#CACACA"/>
<line x1="121" y1="268.5" x2="150" y2="268.5" stroke="#CACACA"/>
<line x1="121" y1="276.5" x2="150" y2="276.5" stroke="#CACACA"/>
<line x1="121" y1="285" x2="150" y2="285" stroke="#CACACA"/>
<line x1="121" y1="292" x2="150" y2="292" stroke="#CACACA"/>
<line x1="121" y1="299" x2="150" y2="299" stroke="#CACACA"/>
<line x1="121" y1="305.5" x2="150" y2="305.5" stroke="#CACACA"/>
<line x1="121" y1="312" x2="150" y2="312" stroke="#CACACA"/>
<line x1="121" y1="317" x2="150" y2="317" stroke="#CACACA"/>
<line x1="121" y1="323" x2="150" y2="323" stroke="#CACACA"/>
<line x1="121" y1="328" x2="150" y2="328" stroke="#CACACA"/>
<path d="M121 332.5H150" stroke="#CACACA"/>
<line x1="121" y1="337" x2="150" y2="337" stroke="#CACACA"/>
<line x1="121" y1="133.5" x2="150" y2="133.5" stroke="#CACACA"/>
<path d="M135.5 145L146.325 139.75H124.675L135.5 145Z" fill="#CACACA"/>
<path d="M135.5 175L146.325 169.75H124.675L135.5 175Z" fill="#CACACA"/>
<path d="M135.5 202L146.325 196.75H124.675L135.5 202Z" fill="#CACACA"/>
<path d="M135.5 227L146.325 221.75H124.675L135.5 227Z" fill="#CACACA"/>
<path d="M134.929 257L142.661 253.25H127.196L134.929 257Z" fill="#CACACA"/>
<path d="M134.929 283L142.661 279.25H127.196L134.929 283Z" fill="#CACACA"/>
<path d="M134.929 297.5L142.661 293.75H127.196L134.929 297.5Z" fill="#CACACA"/>
<path d="M134.645 310.5L140.4 307.709H128.89L134.645 310.5Z" fill="#CACACA"/>
<path d="M134.645 321.5L140.4 318.709H128.89L134.645 321.5Z" fill="#CACACA"/>
<path d="M135.464 336L139.33 334.125H131.598L135.464 336Z" fill="#CACACA"/>
<rect x="120.5" y="73" width="30" height="26" fill="black"/>
<path d="M118.214 96.5C160.215 75 156.215 72.5 161.214 1C144.422 38.2951 115.215 51.5 118.214 96.5Z" fill="#1A1A1A" stroke="black"/>
<path d="M118.267 97.1703C160.268 75.6703 156.268 73.1703 161.267 1.67036C144.474 38.9654 115.268 52.1703 118.267 97.1703Z" fill="url(#paint3_linear_709_252)"/>
<circle cx="124.5" cy="74.5" r="3.375" fill="black" stroke="#2E2E2E" stroke-width="0.25"/>
<circle cx="124.501" cy="74.5" r="2.20833" fill="black" stroke="#2E2E2E" stroke-width="0.25"/>
<circle cx="127.5" cy="64.5" r="3.375" fill="black" stroke="#2E2E2E" stroke-width="0.25"/>
<circle cx="127.501" cy="64.5" r="2.20833" fill="black" stroke="#2E2E2E" stroke-width="0.25"/>
<circle cx="132.5" cy="55.5" r="3.375" fill="black" stroke="#2E2E2E" stroke-width="0.25"/>
<circle cx="132.501" cy="55.5" r="2.20833" fill="black" stroke="#2E2E2E" stroke-width="0.25"/>
<circle cx="138.5" cy="46.5" r="3.375" fill="black" stroke="#2E2E2E" stroke-width="0.25"/>
<circle cx="138.501" cy="46.5" r="2.20833" fill="black" stroke="#2E2E2E" stroke-width="0.25"/>
<circle cx="144.5" cy="37.5" r="3.375" fill="black" stroke="#2E2E2E" stroke-width="0.25"/>
<circle cx="144.501" cy="37.5" r="2.20833" fill="black" stroke="#2E2E2E" stroke-width="0.25"/>
<circle cx="151.5" cy="28.5" r="3.375" fill="black" stroke="#2E2E2E" stroke-width="0.25"/>
<circle cx="151.501" cy="28.5" r="2.20833" fill="black" stroke="#2E2E2E" stroke-width="0.25"/>
<rect x="117.25" y="354.25" width="35.5" height="15.5" rx="0.75" fill="black" stroke="black" stroke-width="0.5"/>
<rect x="117.25" y="392.25" width="35.5" height="15.5" rx="0.75" fill="black" stroke="black" stroke-width="0.5"/>
<rect x="117" y="418.25" width="36.5" height="18" rx="0.75" fill="black" stroke="black" stroke-width="0.5"/>
<rect x="120.875" y="419.125" width="3.75" height="15.25" rx="0.875" fill="black" stroke="#2E2E2E" stroke-width="0.25"/>
<rect x="130.875" y="419.125" width="3.75" height="15.25" rx="0.875" fill="black" stroke="#2E2E2E" stroke-width="0.25"/>
<rect x="140.875" y="419.125" width="3.75" height="15.25" rx="0.875" fill="black" stroke="#2E2E2E" stroke-width="0.25"/>
<rect x="145.875" y="419.125" width="3.75" height="15.25" rx="0.875" fill="black" stroke="#2E2E2E" stroke-width="0.25"/>
<rect x="125.875" y="419.125" width="3.75" height="15.25" rx="0.875" fill="black" stroke="#2E2E2E" stroke-width="0.25"/>
<rect x="135.875" y="419.125" width="3.75" height="15.25" rx="0.875" fill="black" stroke="#2E2E2E" stroke-width="0.25"/>
<line x1="122.75" y1="98.9881" x2="123.75" y2="77.9881" stroke="#00FF38" stroke-width="0.5"/>
<line x1="127.75" y1="99" x2="127.75" y2="68" stroke="#00FF38" stroke-width="0.5"/>
<line x1="132.75" y1="99" x2="132.75" y2="59" stroke="#00FF38" stroke-width="0.5"/>
<line x1="137.75" y1="98.9949" x2="138.75" y2="49.9949" stroke="#00FF38" stroke-width="0.5"/>
<line x1="142.75" y1="98.9914" x2="144.75" y2="40.9914" stroke="#00FF38" stroke-width="0.5"/>
<line x1="147.75" y1="98.9888" x2="150.75" y2="31.9888" stroke="#00FF38" stroke-width="0.5"/>
<line x1="122.75" y1="419" x2="122.75" y2="99" stroke="#00FF38" stroke-width="0.5"/>
<line x1="127.75" y1="419" x2="127.75" y2="99" stroke="#00FF38" stroke-width="0.5"/>
<line x1="132.75" y1="419" x2="132.75" y2="99" stroke="#00FF38" stroke-width="0.5"/>
<line x1="137.75" y1="419" x2="137.75" y2="99" stroke="#00FF38" stroke-width="0.5"/>
<line x1="142.75" y1="419" x2="142.75" y2="99" stroke="#00FF38" stroke-width="0.5"/>
<line x1="147.75" y1="419" x2="147.75" y2="99" stroke="#00FF38" stroke-width="0.5"/>
<defs>
<linearGradient id="paint0_linear_709_252" x1="52.0186" y1="480.505" x2="235.989" y2="370.106" gradientUnits="userSpaceOnUse">
<stop stop-opacity="0.73"/>
<stop offset="0.499713" stop-opacity="0"/>
<stop offset="1" stop-opacity="0.73"/>
</linearGradient>
<linearGradient id="paint1_linear_709_252" x1="34.7541" y1="338.849" x2="252.014" y2="539.252" gradientUnits="userSpaceOnUse">
<stop stop-opacity="0.73"/>
<stop offset="0.499713" stop-opacity="0"/>
<stop offset="1" stop-opacity="0.73"/>
</linearGradient>
<linearGradient id="paint2_linear_709_252" x1="179.331" y1="473.447" x2="181.734" y2="478.348" gradientUnits="userSpaceOnUse">
<stop stop-color="#2E2E2E"/>
<stop offset="1"/>
</linearGradient>
<linearGradient id="paint3_linear_709_252" x1="139.66" y1="1.67036" x2="139.66" y2="97.1703" gradientUnits="userSpaceOnUse">
<stop/>
<stop offset="1" stop-color="#24008A" stop-opacity="0"/>
</linearGradient>
</defs>
</svg>
