<svg width="279" height="700" viewBox="0 0 279 700" fill="none" xmlns="http://www.w3.org/2000/svg">
<path d="M45.1981 503.085C37.9386 548.536 75.9466 552.804 85.7506 530.561L85.7686 587.477C46.6486 617.125 46.3214 642.507 75.9466 700C36.7015 683.645 -18.2501 641.121 5.95094 503.085C32.7746 407.571 18.895 410.778 10.4722 386.635C61.5002 397.757 66.1335 440.28 45.1981 503.085Z" fill="#414141"/>
<path d="M27.4811 507.664C41.2195 443.551 44.486 414.766 10.4673 386.635C18.8902 410.778 32.7743 406.916 5.95056 502.43C-18.2505 640.467 36.6428 683.645 75.8879 700C17.1617 629.509 10.4718 580.935 27.4811 507.664Z" fill="#D5D5D5" fill-opacity="0.39"/>
<path d="M233.504 581.588C240.764 536.137 202.756 531.869 192.952 554.112L192.934 497.196C232.054 467.548 232.381 442.166 202.756 384.673C242.001 401.028 296.952 443.551 272.751 581.588C245.928 677.102 259.807 673.895 268.23 698.037C217.202 686.916 212.569 644.392 233.504 581.588Z" fill="#414141"/>
<path d="M251.211 577.009C237.473 641.121 234.206 669.907 268.225 698.037C259.802 673.895 245.918 677.757 272.742 582.243C296.943 444.206 242.05 401.028 202.805 384.673C261.531 455.164 268.221 503.738 251.211 577.009Z" fill="#D5D5D5" fill-opacity="0.39"/>
<path fill-rule="evenodd" clip-rule="evenodd" d="M139.35 462.85H109.257C108.817 482.212 105.083 486.535 85.7054 498.832L85.7054 587.476C86.0201 587.673 86.3308 587.866 86.6374 588.058C104.106 598.949 108.485 601.679 109.257 621.822H139.35L169.444 621.822C169.883 602.461 173.618 598.138 192.995 585.841L192.995 497.196C192.68 497 192.37 496.806 192.063 496.615C174.595 485.724 170.215 482.994 169.444 462.85H139.35Z" fill="#411A04"/>
<rect x="113.183" y="621.823" width="52.3364" height="14.3925" fill="#414141"/>
<rect x="113.832" y="622.477" width="26.1682" height="13.0841" fill="#D4D4D4" fill-opacity="0.39"/>
<path fill-rule="evenodd" clip-rule="evenodd" d="M121.033 636.215C129.597 649.119 133.45 656.604 125.613 670.234V680.047L139.351 689.86V689.86L139.351 689.86L153.089 680.047V670.234C145.252 656.604 149.105 649.119 157.669 636.215H139.351V636.215H121.033Z" fill="#414141"/>
<path d="M126.206 670.146C133.948 656.682 130.142 649.289 121.683 636.542H139.777V689.533L126.206 679.839V670.146Z" fill="#D4D4D4" fill-opacity="0.39"/>
<path d="M139.153 667.29L146.157 675.794L139.153 684.299L132.149 675.794L139.153 667.29Z" fill="url(#paint0_linear_719_1557)"/>
<rect x="114.082" y="475.203" width="50.1304" height="23.3261" rx="0.75" fill="black" stroke="black" stroke-width="0.5"/>
<rect x="114.082" y="523.94" width="50.1304" height="23.3261" rx="0.75" fill="black" stroke="black" stroke-width="0.5"/>
<rect x="114.081" y="562.657" width="50.528" height="27.0489" rx="0.75" fill="black" stroke="black" stroke-width="0.5"/>
<rect x="119.472" y="564.021" width="5.26654" height="22.8315" rx="0.875" fill="black" stroke="#2E2E2E" stroke-width="0.25"/>
<rect x="133.263" y="564.021" width="5.26654" height="22.8315" rx="0.875" fill="black" stroke="#2E2E2E" stroke-width="0.25"/>
<rect x="147.055" y="564.021" width="5.26654" height="22.8315" rx="0.875" fill="black" stroke="#2E2E2E" stroke-width="0.25"/>
<rect x="153.95" y="564.021" width="5.26654" height="22.8315" rx="0.875" fill="black" stroke="#2E2E2E" stroke-width="0.25"/>
<rect x="126.368" y="564.021" width="5.26654" height="22.8315" rx="0.875" fill="black" stroke="#2E2E2E" stroke-width="0.25"/>
<rect x="140.16" y="564.021" width="5.26654" height="22.8315" rx="0.875" fill="black" stroke="#2E2E2E" stroke-width="0.25"/>
<path d="M118.617 463.177L118.617 146.542L127.659 146.542L160.349 146.542L160.349 463.177L118.617 463.177Z" fill="#1C0500"/>
<line x1="119.313" y1="169.594" x2="159.655" y2="169.594" stroke="white"/>
<line x1="119.313" y1="213.425" x2="159.655" y2="213.425" stroke="white"/>
<line x1="119.313" y1="232.724" x2="159.655" y2="232.724" stroke="white"/>
<line x1="119.313" y1="252.351" x2="159.655" y2="252.351" stroke="white"/>
<line x1="119.313" y1="269.36" x2="159.655" y2="269.36" stroke="white"/>
<line x1="119.313" y1="286.369" x2="159.655" y2="286.369" stroke="white"/>
<line x1="119.313" y1="302.07" x2="159.655" y2="302.07" stroke="white"/>
<line x1="119.313" y1="317.444" x2="159.655" y2="317.444" stroke="white"/>
<line x1="119.313" y1="331.182" x2="159.655" y2="331.182" stroke="white"/>
<line x1="119.313" y1="344.266" x2="159.655" y2="344.266" stroke="white"/>
<line x1="119.313" y1="356.696" x2="159.655" y2="356.696" stroke="white"/>
<line x1="119.313" y1="368.472" x2="159.655" y2="368.472" stroke="white"/>
<line x1="119.313" y1="378.939" x2="159.655" y2="378.939" stroke="white"/>
<line x1="119.313" y1="390.061" x2="159.655" y2="390.061" stroke="white"/>
<line x1="119.313" y1="399.22" x2="159.655" y2="399.22" stroke="white"/>
<line x1="119.313" y1="408.378" x2="159.655" y2="408.378" stroke="white"/>
<line x1="119.313" y1="416.883" x2="159.655" y2="416.883" stroke="white"/>
<line x1="119.313" y1="425.388" x2="159.655" y2="425.388" stroke="white"/>
<line x1="119.313" y1="431.93" x2="159.655" y2="431.93" stroke="white"/>
<line x1="119.313" y1="439.78" x2="159.655" y2="439.78" stroke="white"/>
<line x1="119.313" y1="446.323" x2="159.655" y2="446.323" stroke="white"/>
<path d="M119.313 452.056L159.655 452.056" stroke="white"/>
<line x1="119.313" y1="458.098" x2="159.655" y2="458.098" stroke="white"/>
<line x1="119.313" y1="191.836" x2="159.655" y2="191.836" stroke="white"/>
<path d="M139.485 206.729L154.544 199.86L124.426 199.86L139.485 206.729Z" fill="white"/>
<path d="M139.485 245.981L154.544 239.112L124.426 239.112L139.485 245.981Z" fill="white"/>
<path d="M139.485 281.308L154.544 274.439L124.426 274.439L139.485 281.308Z" fill="white"/>
<path d="M139.485 314.019L154.544 307.15L124.426 307.15L139.485 314.019Z" fill="white"/>
<path d="M138.69 353.271L149.446 348.364L127.934 348.364L138.69 353.271Z" fill="white"/>
<path d="M138.69 387.29L149.446 382.383L127.934 382.383L138.69 387.29Z" fill="white"/>
<path d="M138.69 406.262L149.446 401.355L127.934 401.355L138.69 406.262Z" fill="white"/>
<path d="M138.295 423.271L146.301 419.619L130.29 419.619L138.295 423.271Z" fill="white"/>
<path d="M138.295 437.664L146.301 434.012L130.29 434.012L138.295 437.664Z" fill="white"/>
<path d="M139.435 456.635L144.813 454.182L134.057 454.182L139.435 456.635Z" fill="white"/>
<rect x="118.411" y="112.523" width="41.7321" height="34.0187" fill="black"/>
<path fill-rule="evenodd" clip-rule="evenodd" d="M139.345 127.267L153.658 127.267C153.867 117.822 155.643 115.713 164.859 109.715L164.859 66.4736C164.71 66.3778 164.562 66.2833 164.416 66.1901C156.108 60.8774 154.025 59.5456 153.658 49.7196L139.345 49.7196L125.033 49.7195C124.824 59.1643 123.047 61.2729 113.831 67.2714L113.831 110.513C113.981 110.609 114.129 110.703 114.275 110.796C122.583 116.109 124.666 117.441 125.033 127.267L139.345 127.267L139.345 127.267Z" fill="#411A04"/>
<path d="M137.835 106.635C137.835 109.088 135.719 111.09 133.091 111.09C130.464 111.09 128.348 109.088 128.348 106.635C128.348 104.182 130.464 102.181 133.091 102.181C135.719 102.181 137.835 104.182 137.835 106.635Z" fill="black" stroke="#2E2E2E" stroke-width="0.25"/>
<path d="M136.214 106.635C136.214 108.245 134.824 109.563 133.093 109.563C131.363 109.563 129.973 108.245 129.973 106.635C129.973 105.025 131.363 103.707 133.093 103.707C134.824 103.707 136.214 105.025 136.214 106.635Z" fill="black" stroke="#2E2E2E" stroke-width="0.25"/>
<path d="M131.293 93.5511C131.293 96.0041 129.177 98.0056 126.549 98.0056C123.922 98.0056 121.806 96.0041 121.806 93.5511C121.806 91.0981 123.922 89.0967 126.549 89.0967C129.177 89.0967 131.293 91.0981 131.293 93.5511Z" fill="black" stroke="#2E2E2E" stroke-width="0.25"/>
<path d="M129.672 93.5513C129.672 95.1612 128.282 96.4792 126.551 96.4792C124.821 96.4792 123.431 95.1612 123.431 93.5512C123.431 91.9413 124.821 90.6233 126.551 90.6233C128.282 90.6233 129.672 91.9413 129.672 93.5513Z" fill="black" stroke="#2E2E2E" stroke-width="0.25"/>
<path d="M124.751 80.4669C124.751 82.9199 122.635 84.9213 120.007 84.9213C117.38 84.9213 115.264 82.9199 115.264 80.4669C115.264 78.0139 117.38 76.0125 120.007 76.0125C122.635 76.0125 124.751 78.0139 124.751 80.4669Z" fill="black" stroke="#2E2E2E" stroke-width="0.25"/>
<path d="M123.13 80.467C123.13 82.077 121.74 83.395 120.01 83.395C118.279 83.395 116.889 82.077 116.889 80.467C116.889 78.8571 118.279 77.5391 120.01 77.5391C121.74 77.5391 123.13 78.8571 123.13 80.467Z" fill="black" stroke="#2E2E2E" stroke-width="0.25"/>
<path d="M140.124 106.635C140.124 109.094 142.136 111.09 144.62 111.09C147.105 111.09 149.117 109.094 149.117 106.635C149.117 104.176 147.105 102.181 144.62 102.181C142.136 102.181 140.124 104.176 140.124 106.635Z" fill="black" stroke="#2E2E2E" stroke-width="0.25"/>
<path d="M141.663 106.635C141.663 108.251 142.985 109.563 144.619 109.563C146.253 109.563 147.575 108.251 147.575 106.635C147.575 105.019 146.253 103.707 144.619 103.707C142.985 103.707 141.663 105.019 141.663 106.635Z" fill="black" stroke="#2E2E2E" stroke-width="0.25"/>
<path d="M147.643 93.5511C147.643 96.0102 149.655 98.0056 152.14 98.0056C154.625 98.0056 156.637 96.0102 156.637 93.5511C156.637 91.0921 154.625 89.0967 152.14 89.0967C149.655 89.0967 147.643 91.0921 147.643 93.5511Z" fill="black" stroke="#2E2E2E" stroke-width="0.25"/>
<path d="M149.182 93.5513C149.182 95.1672 150.505 96.4792 152.139 96.4792C153.772 96.4792 155.095 95.1672 155.095 93.5512C155.095 91.9353 153.772 90.6233 152.139 90.6233C150.505 90.6233 149.182 91.9353 149.182 93.5513Z" fill="black" stroke="#2E2E2E" stroke-width="0.25"/>
<path d="M153.853 80.4669C153.853 82.9259 155.865 84.9213 158.35 84.9213C160.834 84.9213 162.847 82.9259 162.847 80.4669C162.847 78.0079 160.834 76.0125 158.35 76.0125C155.865 76.0125 153.853 78.0079 153.853 80.4669Z" fill="black" stroke="#2E2E2E" stroke-width="0.25"/>
<path d="M155.392 80.467C155.392 82.083 156.715 83.395 158.349 83.395C159.982 83.395 161.305 82.083 161.305 80.467C161.305 78.851 159.982 77.5391 158.349 77.5391C156.715 77.5391 155.392 78.851 155.392 80.467Z" fill="black" stroke="#2E2E2E" stroke-width="0.25"/>
<rect x="164.859" y="68.0374" width="51.028" height="14.3925" transform="rotate(-180 164.859 68.0374)" fill="#414141"/>
<rect x="164.227" y="67.3831" width="25.514" height="13.0841" transform="rotate(-180 164.227 67.3831)" fill="#D4D4D4" fill-opacity="0.39"/>
<path fill-rule="evenodd" clip-rule="evenodd" d="M139.344 53.6448L121.484 53.6448C129.834 40.7404 133.591 33.2558 125.949 19.6261L125.949 9.813L139.344 -8.39233e-05L152.739 9.81292L152.739 19.626C145.098 33.2557 148.855 40.7403 157.204 53.6447L139.344 53.6447V53.6448Z" fill="#414141"/>
<path d="M152.162 19.7138C144.614 33.1772 148.325 40.5706 156.572 53.3176L138.93 53.3176L138.93 0.326973L152.162 10.0204L152.162 19.7138Z" fill="#D4D4D4" fill-opacity="0.39"/>
<path d="M139.537 22.5701L132.709 14.0654L139.537 5.56072L146.366 14.0654L139.537 22.5701Z" fill="url(#paint1_linear_719_1557)"/>
<path d="M121.769 145.219L121.028 85.0471" stroke="#999999" stroke-width="0.5"/>
<path d="M128.723 145.234L127.569 98.1313" stroke="#999999" stroke-width="0.5"/>
<path d="M135.679 145.234L134.766 111.215" stroke="#999999" stroke-width="0.5"/>
<path d="M142.634 145.228L143.924 111.215" stroke="#999999" stroke-width="0.5"/>
<path d="M149.59 145.223L151.121 98.131" stroke="#999999" stroke-width="0.5"/>
<path d="M156.545 145.22L157.663 85.0473" stroke="#999999" stroke-width="0.5"/>
<line x1="121.846" y1="563.926" x2="121.846" y2="145.234" stroke="#999999" stroke-width="0.5"/>
<line x1="128.801" y1="563.926" x2="128.801" y2="145.234" stroke="#999999" stroke-width="0.5"/>
<line x1="135.757" y1="563.926" x2="135.757" y2="145.234" stroke="#999999" stroke-width="0.5"/>
<line x1="142.711" y1="563.926" x2="142.711" y2="145.234" stroke="#999999" stroke-width="0.5"/>
<line x1="149.667" y1="563.926" x2="149.667" y2="145.234" stroke="#999999" stroke-width="0.5"/>
<line x1="156.623" y1="563.926" x2="156.623" y2="145.234" stroke="#999999" stroke-width="0.5"/>
<defs>
<linearGradient id="paint0_linear_719_1557" x1="133.65" y1="668.29" x2="146.157" y2="681.798" gradientUnits="userSpaceOnUse">
<stop stop-color="#9E00FF"/>
<stop offset="1" stop-color="#00B2FF"/>
</linearGradient>
<linearGradient id="paint1_linear_719_1557" x1="144.903" y1="21.5695" x2="132.376" y2="8.37836" gradientUnits="userSpaceOnUse">
<stop stop-color="#9E00FF"/>
<stop offset="1" stop-color="#00B2FF"/>
</linearGradient>
</defs>
</svg>
