<svg width="311" height="500" viewBox="0 0 311 500" fill="none" xmlns="http://www.w3.org/2000/svg">
<path fill-rule="evenodd" clip-rule="evenodd" d="M156.123 56.8182C141.972 40.7137 138.561 22.7273 156.123 0C174.013 21.1398 171.619 39.2562 156.123 56.8182ZM145.792 107.438H167.487L160.255 68.1818H153.024L145.792 107.438ZM143.726 209.711H169.553L167.487 119.835H145.792L143.726 209.711ZM203.644 208.678H252.197V177.686H227.404V166.322H252.197V121.901H227.404V109.504H252.197V55.7851H203.644V208.678ZM11.7668 219.008H286.56C295.745 250.109 295.365 266.184 288.626 293.388H266.932V306.818H288.626L310.32 357.438C311.746 362.232 304.59 363.754 286.56 365.702V408.058H266.932V422.521H286.56V451.578C286.56 453.788 284.769 455.578 282.56 455.578H204.552C197.924 455.578 192.552 460.951 192.552 467.578V500H63.4196L76.8494 402.893L117.139 428.719L125.403 418.388C37.7005 370.92 -19.2232 321.281 11.7668 219.008ZM81.7413 77.4793H57.981V149.793H33.1891V140.496C57.981 133.264 60.0486 98.1405 33.1891 85.7438H19.7578C-6.0671 97.1074 -7.09973 129.132 19.7578 140.496V161.157H57.981V208.678H69.3446V161.157C91.0388 161.157 97.2372 168.388 97.2372 208.678H107.568C109.21 156.701 97.2445 150.107 69.3446 149.793V89.876H81.7413V111.57H132.361V57.8512H81.7413V77.4793Z" fill="white"/>
</svg>
