<svg width="377" height="600" viewBox="0 0 377 600" fill="none" xmlns="http://www.w3.org/2000/svg">
<path fill-rule="evenodd" clip-rule="evenodd" d="M152.519 380.996L130.453 342.014C148.127 283.177 153.148 255.097 155.951 211.093C155.692 209.494 155.437 207.924 155.187 206.38C149.448 171.013 146.004 149.788 148.841 135.58C154.875 74.9367 165.517 46.7754 188.804 0V380.996H152.519ZM225.091 380.996L247.157 342.014C229.483 283.177 224.462 255.097 221.659 211.093C221.918 209.494 222.173 207.924 222.423 206.38C228.162 171.013 231.606 149.788 228.769 135.58C222.735 74.9367 212.093 46.7754 188.806 0V380.996H225.091Z" fill="#A0A0A0"/>
<path fill-rule="evenodd" clip-rule="evenodd" d="M165.249 380.997L145.656 344.711C148.697 330.055 151.54 317.445 154.11 306.05C161.153 274.82 166.136 252.723 167.458 222.682C167.291 221.193 167.127 219.729 166.966 218.291C163.273 185.336 161.057 165.559 162.883 152.32C166.765 95.8149 173.613 69.5744 188.598 25.9916V25.9882C188.598 25.9888 188.598 25.9893 188.598 25.9899C188.598 25.9893 188.599 25.9888 188.599 25.9882V25.9916C203.583 69.5744 210.431 95.8149 214.314 152.32C216.139 165.559 213.923 185.336 210.23 218.291C210.069 219.729 209.905 221.193 209.739 222.682C210.993 251.205 215.869 271.973 222.549 300.428C225.471 312.878 228.74 326.799 232.201 343.485L211.947 380.997H188.599H188.598H165.249Z" fill="#656565"/>
<path fill-rule="evenodd" clip-rule="evenodd" d="M181.936 380.751C183.105 369.34 179.561 361.15 167.225 343.73C164.661 325.592 165.864 317.512 173.845 307.69C170.787 328.842 172.806 333.585 178.749 337.601C190.517 325.097 188.346 304.101 178.749 271.895C171.552 263.573 170.085 256.576 173.845 238.307C174.624 249.314 175.51 254.694 180.22 258.901C181.998 243.681 182.173 235.539 177.033 223.596C174.142 214.472 173.952 209.75 177.033 202.267C177.551 209.107 181.201 214.525 181.201 214.525C186.84 207.17 181.756 179.261 173.845 153.232C170.859 138.816 172.462 132.998 177.033 123.812C176.116 136.277 177.836 137.513 181.936 137.051C185.859 131.412 183.689 114.647 177.033 99.2945C176.624 92.2955 177.866 88.7607 180.711 82.6228C180.987 94.3422 181.637 99.5268 185.614 100.766C188.853 92.4855 188.191 88.446 186.35 81.397C185.823 78.529 188.698 62.5058 189.55 57.8832V56.8798C189.55 56.8798 189.583 57.0557 189.643 57.3782C189.732 56.9007 189.782 56.6346 189.782 56.6346V58.1283C190.634 62.7509 193.508 78.7742 192.982 81.6421C191.14 88.6912 190.478 92.7307 193.718 101.011C197.695 99.772 198.345 94.5874 198.621 82.868C201.466 89.0059 202.708 92.5407 202.299 99.5396C195.643 114.892 193.473 131.657 197.395 137.296C201.496 137.758 203.216 136.522 202.299 124.057C206.87 133.243 208.473 139.061 205.487 153.477C197.576 179.506 192.492 207.415 198.131 214.77C198.131 214.77 201.781 209.353 202.299 202.512C205.38 209.995 205.19 214.717 202.299 223.842C197.158 235.784 197.334 243.926 199.112 259.146C203.822 254.939 204.708 249.56 205.487 238.552C209.247 256.821 207.78 263.818 200.583 272.14C190.986 304.347 188.814 325.343 200.583 337.846C206.526 333.83 208.545 329.087 205.487 307.935C213.468 317.757 214.672 325.837 212.107 343.976C199.771 361.395 196.227 369.585 197.396 380.997H189.55V380.751H181.936Z" fill="#00FFF0"/>
<rect x="175.066" y="414" width="31.5626" height="134.007" fill="url(#paint0_linear_781_271)"/>
<path d="M206.494 414.334L175.28 441.136" stroke="black"/>
<path d="M206.599 441.01L175.171 414.46" stroke="black"/>
<path d="M206.494 440.681L175.28 467.483" stroke="black"/>
<path d="M206.599 467.357L175.171 440.807" stroke="black"/>
<path d="M206.522 467.629L175.308 494.431" stroke="black"/>
<path d="M206.631 494.305L175.202 467.755" stroke="black"/>
<path d="M206.522 494.377L175.308 521.179" stroke="black"/>
<path d="M206.631 521.053L175.202 494.503" stroke="black"/>
<path d="M206.522 521.125L175.308 547.927" stroke="black"/>
<path d="M206.631 547.801L175.202 521.251" stroke="black"/>
<path d="M225.606 375.858C218.841 365.344 205.488 368.195 206.734 381.204C207.127 388.676 211.951 393.545 218.302 393.185C218.002 397.525 218.221 399.967 220.794 404.371C225.277 411.809 228.855 414.508 235.747 418.628L233.257 408.114L246.073 417.202C244.258 411.26 243.121 407.286 242.231 402.652C246.214 404.879 250.315 406.038 256.4 407.579C267.401 408.889 272.659 408.466 281.503 407.044L272.245 402.652C280.426 402.753 285.534 402.081 299.307 394.392L293.075 391.934C303.45 389.931 309.249 389.025 320.468 375.326H312.278C320.766 371.339 329.006 364.587 337.203 353.226L324.919 354.956C340.729 346.495 353.869 334.23 359.28 314.198C354.778 317.09 352.644 317.521 348.954 317.964C366.113 303.208 377.182 283.792 376.049 262.874C368.848 278.319 363.232 284.686 351.583 293.704C366.197 276.748 373.57 255.295 368.749 229.371C359.878 268.043 335.812 279.447 332.429 280.877C347.279 264.316 352.462 247.971 344.706 224.381C346.1 233.509 339.31 244.672 324.239 262.05C326.876 246.034 327.55 238.226 326.02 228.302C316.179 247.647 308.561 256.759 293.253 271.606L289.362 275.705C291.24 270.529 291.928 263.98 290.585 255.033C285.954 273.032 282.74 276.405 277.709 280.16C278.419 275.047 276.708 268.393 273.673 258.953C277.544 278.491 260.172 294.12 252.485 298.159C238.242 305.644 238.568 316.976 238.42 340.751C238.42 355.364 236.64 364.453 225.606 375.858Z" fill="#E8FFFF"/>
<path d="M243.049 325.96C243.049 313.35 247.018 311.149 257.292 302.525M243.049 325.96C246.505 323.322 249.46 320.973 252.152 318.653M243.049 325.96C243.254 330.532 243.373 334.738 243.41 338.612M257.292 302.525C261.102 299.327 265.805 295.294 271.536 289.605C275.272 286.976 277.174 284.003 277.709 280.16M257.292 302.525L270.111 299.05M270.111 299.05C263.493 307.757 258.574 313.12 252.152 318.653M270.111 299.05C276.688 291.148 285.517 286.303 289.362 275.705M252.152 318.653C254.277 318.851 256.206 318.973 258.004 319.008M243.41 338.612C249.015 336.174 253.601 333.772 258.004 330.892M243.41 338.612C243.448 342.428 243.406 345.922 243.292 349.127M258.004 330.892C265.284 331.774 269.74 331.457 278.122 329.88C276.734 331.008 275.407 332.076 274.131 333.088M258.004 330.892C262.95 327.657 267.665 323.821 273.335 318.653M243.292 349.127C248.467 348.331 252.891 346.893 257.47 344.52M243.292 349.127C243.147 353.192 243.415 355.189 243.049 358.394M257.47 344.52L272.603 347.523M257.47 344.52C262.452 341.939 267.617 338.253 274.131 333.088M272.603 347.523C266.404 351.706 261.645 354.498 257.47 356.228M272.603 347.523C278.082 347.962 281.924 347.909 306.962 340.751M243.049 358.394C248.045 358.88 252.313 358.365 257.47 356.228M243.049 358.394C242.701 361.432 242.248 364.149 241.702 366.591M257.47 356.228L274.74 363.383C272.78 363.966 270.951 364.487 269.218 364.947M241.702 366.591C245.547 367.195 248.908 367.498 252.129 367.506M241.702 366.591C240.95 369.959 240.021 372.806 238.953 375.257M252.129 367.506L268.33 377.818M252.129 367.506C257.655 367.518 262.771 366.658 269.218 364.947M268.33 377.818C258.752 377.936 252.635 377.802 245.007 376.479M268.33 377.818L273.669 380.864M238.953 375.257C241.116 375.748 243.109 376.15 245.007 376.479M238.953 375.257C237.81 377.88 236.505 380.05 235.084 381.917M245.007 376.479L254.443 387.62M254.443 387.62C247.301 387.477 242.912 387.03 238.42 384.322M254.443 387.62L272.245 402.652M254.443 387.62C261.078 393.266 270.756 393.64 293.075 391.934M235.084 381.917C236.229 382.871 237.328 383.663 238.42 384.322M235.084 381.917C233.067 384.568 230.814 386.611 228.45 388.484M238.42 384.322L245.007 394.392M245.007 394.392C240.472 393.818 237.297 393.196 234.325 391.934M245.007 394.392L250.703 400.985M228.45 388.484C227.517 389.223 226.566 389.936 225.606 390.649C224.214 391.527 222.839 392.165 221.506 392.585M228.45 388.484C230.535 390.016 232.387 391.111 234.325 391.934M234.325 391.934L237.174 399.203M237.174 399.203C233.704 399.352 231.1 399.052 228.45 397.783M237.174 399.203C243.137 403.979 247.777 405.395 256.4 407.579M221.506 392.585C224.165 395.121 226.322 396.764 228.45 397.783M221.506 392.585C220.406 392.93 219.334 393.127 218.302 393.185M228.45 397.783L233.257 408.114M233.257 408.114L220.794 404.371M233.257 408.114L235.747 418.628C228.855 414.508 225.277 411.809 220.794 404.371M233.257 408.114L246.073 417.202C244.258 411.26 243.121 407.286 242.231 402.652M220.794 404.371C218.221 399.967 218.002 397.525 218.302 393.185M218.302 393.185C211.951 393.545 207.127 388.676 206.734 381.204C205.488 368.195 218.841 365.344 225.606 375.858C236.64 364.453 238.42 355.364 238.42 340.751C238.568 316.976 238.242 305.644 252.485 298.159C260.172 294.12 277.544 278.491 273.673 258.953C276.708 268.393 278.419 275.047 277.709 280.16M277.709 280.16C282.74 276.405 285.954 273.032 290.585 255.033C291.928 263.98 291.24 270.529 289.362 275.705M289.362 275.705L293.253 271.606M293.253 271.606C290.38 284.77 286.893 293.932 280.391 301.723M293.253 271.606C308.561 256.759 316.179 247.647 326.02 228.302C327.55 238.226 326.876 246.034 324.239 262.05M258.004 319.008C265.415 319.154 270.6 317.823 278.122 314.198C276.443 315.788 274.855 317.268 273.335 318.653M258.004 319.008C268.168 313.231 275.23 307.909 280.391 301.723M280.391 301.723C287.509 299.979 291.39 297.522 298.238 290.318M298.238 290.318C295.292 307.074 293.094 312.138 290.585 315.802M298.238 290.318C308.657 279.316 317.321 270.028 324.239 262.05M290.585 315.802C281.713 318.942 278.327 319.198 273.335 318.653M290.585 315.802C295.102 314.106 297.374 312.416 301.621 308.139M301.621 308.139C299.43 319.461 296.356 323.429 290.939 330.593M301.621 308.139C314.228 298.279 324.654 289.548 332.429 280.877M290.939 330.593C281.821 332.636 278.338 333.097 274.131 333.088M290.939 330.593C294.254 329.806 296.069 329.25 299.307 328.098M299.307 328.098C293.66 337.601 290.045 341.629 283.639 346.763M299.307 328.098C320.106 320.157 338.671 308.686 351.583 293.704M256.4 407.579L250.703 400.985M256.4 407.579C267.401 408.889 272.659 408.466 281.503 407.044L272.245 402.652M250.703 400.985C259.231 402.252 263.921 402.593 272.245 402.652M272.245 402.652C280.426 402.753 285.534 402.081 299.307 394.392L293.075 391.934M293.075 391.934L273.669 380.864M293.075 391.934C303.45 389.931 309.249 389.025 320.468 375.326H312.278M273.669 380.864C285.388 376.791 291.454 373.957 299.129 365.522M273.669 380.864C287.449 381.076 300.118 381.038 312.278 375.326M299.129 365.522C290.578 365.585 284.634 365.609 278.476 365.407M299.129 365.522C307.972 362.645 316.798 359.303 324.919 354.956M269.218 364.947C271.751 365.112 274.081 365.237 276.34 365.329M276.34 365.329C277.058 365.358 277.768 365.384 278.476 365.407M276.34 365.329L278.476 365.407M278.476 365.407C293.083 357.668 300.464 352.887 306.962 340.751M306.962 340.751C322.512 336.035 337.169 328.098 348.954 317.964M324.239 262.05C339.31 244.672 346.1 233.509 344.706 224.381C352.462 247.971 347.279 264.316 332.429 280.877M332.429 280.877C335.812 279.447 359.878 268.043 368.749 229.371C373.57 255.295 366.197 276.748 351.583 293.704M351.583 293.704C363.232 284.686 368.848 278.319 376.049 262.874C377.182 283.792 366.113 303.208 348.954 317.964M348.954 317.964C352.644 317.521 354.778 317.09 359.28 314.198C353.869 334.23 340.729 346.495 324.919 354.956M324.919 354.956L337.203 353.226C329.006 364.587 320.766 371.339 312.278 375.326" stroke="black"/>
<path d="M151.667 375.858C158.438 365.344 171.804 368.195 170.557 381.204C170.163 388.676 165.335 393.545 158.978 393.185C159.279 397.525 159.059 399.967 156.483 404.371C151.997 411.809 148.415 414.508 141.516 418.628L144.009 408.114L131.18 417.202C132.997 411.26 134.135 407.286 135.026 402.653C131.039 404.879 126.934 406.038 120.844 407.579C109.832 408.889 104.569 408.466 95.7165 407.045L104.983 402.653C96.7944 402.753 91.6811 402.081 77.8958 394.392L84.1331 391.934C73.7485 389.931 67.9438 389.025 56.7145 375.326H64.9121C56.4159 371.339 48.1678 364.587 39.9629 353.226L52.2593 354.956C36.434 346.495 23.2808 334.23 17.8651 314.198C22.3715 317.09 24.5069 317.521 28.2011 317.964C11.0257 303.208 -0.0544093 283.792 1.07958 262.874C8.28817 278.319 13.9095 284.687 25.5696 293.704C10.9417 276.748 3.56106 255.295 8.387 229.371C17.2668 268.043 41.3555 279.447 44.7415 280.877C29.8774 264.317 24.6898 247.971 32.4526 224.381C31.0579 233.509 37.8542 244.672 52.9391 262.05C50.2996 246.034 49.6252 238.226 51.157 228.302C61.007 247.647 68.6323 256.759 83.9549 271.606L87.8502 275.705C85.9705 270.529 85.281 263.98 86.6258 255.033C91.2614 273.032 94.4784 276.405 99.5145 280.16C98.8033 275.047 100.516 268.393 103.554 258.953C99.6788 278.491 117.068 294.12 124.762 298.159C139.019 305.644 138.693 316.976 138.841 340.751C138.841 355.364 140.623 364.453 151.667 375.858Z" fill="#E8FFFF"/>
<path d="M134.207 325.96C134.207 313.35 130.234 311.149 119.951 302.525M134.207 325.96C130.748 323.322 127.79 320.973 125.095 318.653M134.207 325.96C134.002 330.532 133.883 334.738 133.845 338.613M119.951 302.525C116.137 299.327 111.43 295.294 105.693 289.605C101.953 286.976 100.049 284.003 99.5145 280.16M119.951 302.525L107.12 299.05M107.12 299.05C113.743 307.757 118.667 313.12 125.095 318.653M107.12 299.05C100.536 291.148 91.6986 286.303 87.8502 275.705M125.095 318.653C122.968 318.851 121.037 318.973 119.238 319.008M133.845 338.613C128.235 336.174 123.645 333.772 119.238 330.892M133.845 338.613C133.808 342.428 133.85 345.922 133.964 349.127M119.238 330.892C111.951 331.774 107.491 331.457 99.1002 329.88C100.49 331.008 101.819 332.076 103.096 333.088M119.238 330.892C114.287 327.658 109.568 323.821 103.892 318.653M133.964 349.127C128.784 348.331 124.356 346.893 119.772 344.52M133.964 349.127C134.109 353.192 133.84 355.189 134.207 358.394M119.772 344.52L104.625 347.523M119.772 344.52C114.786 341.939 109.616 338.253 103.096 333.088M104.625 347.523C110.83 351.706 115.593 354.498 119.772 356.228M104.625 347.523C99.1404 347.962 95.2954 347.909 70.2328 340.751M134.207 358.394C129.207 358.881 124.935 358.365 119.772 356.228M134.207 358.394C134.555 361.432 135.009 364.149 135.555 366.591M119.772 356.228L102.486 363.383C104.447 363.966 106.278 364.487 108.013 364.947M135.555 366.591C131.707 367.195 128.343 367.499 125.119 367.506M135.555 366.591C136.309 369.959 137.238 372.806 138.307 375.257M125.119 367.506L108.902 377.818M125.119 367.506C119.587 367.518 114.467 366.658 108.013 364.947M108.902 377.818C118.489 377.936 124.612 377.802 132.247 376.479M108.902 377.818L103.558 380.864M138.307 375.257C136.142 375.748 134.148 376.15 132.247 376.479M138.307 375.257C139.452 377.881 140.757 380.05 142.18 381.917M132.247 376.479L122.802 387.62M122.802 387.62C129.951 387.477 134.344 387.03 138.841 384.322M122.802 387.62L104.983 402.653M122.802 387.62C116.161 393.266 106.473 393.64 84.1331 391.934M142.18 381.917C141.033 382.871 139.934 383.663 138.841 384.322M142.18 381.917C144.199 384.568 146.454 386.611 148.82 388.484M138.841 384.322L132.247 394.392M132.247 394.392C136.787 393.818 139.965 393.196 142.939 391.934M132.247 394.392L126.545 400.985M148.82 388.484C149.754 389.223 150.706 389.936 151.667 390.649C153.061 391.527 154.436 392.166 155.77 392.585M148.82 388.484C146.733 390.016 144.88 391.111 142.939 391.934M142.939 391.934L140.088 399.203M140.088 399.203C143.561 399.352 146.168 399.052 148.82 397.783M140.088 399.203C134.119 403.979 129.475 405.395 120.844 407.579M155.77 392.585C153.109 395.121 150.95 396.765 148.82 397.783M155.77 392.585C156.872 392.93 157.945 393.127 158.978 393.185M148.82 397.783L144.009 408.114M144.009 408.114L156.483 404.371M144.009 408.114L141.516 418.628C148.415 414.508 151.997 411.809 156.483 404.371M144.009 408.114L131.18 417.202C132.997 411.26 134.135 407.286 135.026 402.653M156.483 404.371C159.059 399.967 159.279 397.525 158.978 393.185M158.978 393.185C165.335 393.545 170.163 388.676 170.557 381.204C171.804 368.195 158.438 365.344 151.667 375.858C140.623 364.453 138.841 355.364 138.841 340.751C138.693 316.976 139.019 305.644 124.762 298.159C117.068 294.12 99.6788 278.491 103.554 258.953C100.516 268.393 98.8033 275.047 99.5145 280.16M99.5145 280.16C94.4784 276.405 91.2614 273.032 86.6258 255.033C85.281 263.98 85.9705 270.529 87.8502 275.705M87.8502 275.705L83.9549 271.606M83.9549 271.606C86.831 284.771 90.3208 293.932 96.829 301.723M83.9549 271.606C68.6323 256.759 61.007 247.647 51.157 228.302C49.6252 238.226 50.2996 246.034 52.9391 262.05M119.238 319.008C111.82 319.154 106.629 317.823 99.1002 314.198C100.781 315.788 102.371 317.268 103.892 318.653M119.238 319.008C109.064 313.231 101.996 307.909 96.829 301.723M96.829 301.723C89.7044 299.979 85.8201 297.522 78.965 290.318M78.965 290.318C81.9145 307.074 84.1139 312.138 86.6258 315.802M78.965 290.318C68.5365 279.316 59.8644 270.028 52.9391 262.05M86.6258 315.802C95.5067 318.942 98.8958 319.198 103.892 318.653M86.6258 315.802C82.1045 314.106 79.8303 312.416 75.5791 308.139M75.5791 308.139C77.7725 319.461 80.8495 323.429 86.2716 330.593M75.5791 308.139C62.9603 298.279 52.5244 289.548 44.7415 280.877M86.2716 330.593C95.3978 332.636 98.884 333.097 103.096 333.088M86.2716 330.593C82.9529 329.806 81.1367 329.25 77.8958 328.098M77.8958 328.098C83.5474 337.601 87.1666 341.629 93.578 346.763M77.8958 328.098C57.0765 320.157 38.4942 308.686 25.5696 293.704M120.844 407.579L126.545 400.985M120.844 407.579C109.832 408.889 104.569 408.466 95.7165 407.045L104.983 402.653M126.545 400.985C118.01 402.252 113.316 402.593 104.983 402.653M104.983 402.653C96.7944 402.753 91.6811 402.081 77.8958 394.392L84.1331 391.934M84.1331 391.934L103.558 380.864M84.1331 391.934C73.7485 389.931 67.9438 389.025 56.7145 375.326H64.9121M103.558 380.864C91.8272 376.791 85.7562 373.957 78.074 365.522M103.558 380.864C89.7646 381.076 77.0837 381.038 64.9121 375.326M78.074 365.522C86.6325 365.585 92.5827 365.609 98.746 365.408M78.074 365.522C69.2217 362.645 60.388 359.303 52.2593 354.956M108.013 364.947C105.477 365.112 103.146 365.237 100.885 365.329M100.885 365.329C100.166 365.358 99.4546 365.384 98.746 365.408M100.885 365.329L98.746 365.408M98.746 365.408C84.1252 357.668 76.7371 352.887 70.2328 340.751M70.2328 340.751C54.6686 336.035 39.9973 328.098 28.2011 317.964M52.9391 262.05C37.8542 244.672 31.0579 233.509 32.4526 224.381C24.6898 247.971 29.8774 264.316 44.7415 280.877M44.7415 280.877C41.3555 279.447 17.2668 268.043 8.387 229.371C3.56106 255.295 10.9417 276.748 25.5696 293.704M25.5696 293.704C13.9095 284.687 8.28817 278.319 1.07958 262.874C-0.0544092 283.792 11.0257 303.208 28.2011 317.964M28.2011 317.964C24.5069 317.521 22.3715 317.09 17.8651 314.198C23.2808 334.23 36.434 346.495 52.2593 354.956M52.2593 354.956L39.9629 353.226C48.1678 364.587 56.4159 371.339 64.9121 375.326" stroke="black"/>
<path d="M176.503 353.942L205.872 353.942L228.897 376.405L205.797 413.59L176.577 413.59L148.6 376.413L176.503 353.942Z" fill="#A4A4A4" stroke="black"/>
<path d="M181.834 366.007L199.336 366.007L213.24 377.542L199.157 396.933L190.816 403.198L182.02 396.929L168.042 377.542L181.834 366.007Z" fill="#00FFF0" stroke="black"/>
<path fill-rule="evenodd" clip-rule="evenodd" d="M218.795 585.564C215.992 591.767 211.188 596.85 205.154 600L199.877 589.891C205.946 586.715 210.088 580.358 210.088 573.034C210.088 562.533 201.576 554.021 191.076 554.021C180.575 554.021 172.063 562.533 172.063 573.034C172.063 580.358 176.205 586.715 182.274 589.891L176.996 599.999C170.962 596.848 166.159 591.765 163.356 585.562C160.553 579.359 159.911 572.395 161.533 565.784C163.155 559.173 166.947 553.297 172.304 549.097C177.66 544.896 184.27 542.613 191.077 542.614C197.884 542.614 204.495 544.897 209.851 549.098C215.207 553.299 218.999 559.175 220.62 565.787C222.242 572.398 221.599 579.361 218.795 585.564Z" fill="#A4A4A4"/>
<defs>
<linearGradient id="paint0_linear_781_271" x1="175.066" y1="473.648" x2="206.629" y2="473.447" gradientUnits="userSpaceOnUse">
<stop offset="0.192708" stop-color="#460D00"/>
<stop offset="0.515803" stop-color="#881800"/>
<stop offset="0.838542" stop-color="#460D00"/>
</linearGradient>
</defs>
</svg>
