<svg width="211" height="700" viewBox="0 0 211 700" fill="none" xmlns="http://www.w3.org/2000/svg">
<path d="M105.223 438.387C178.434 451.072 240.259 615.909 105.223 700L105.223 438.387Z" fill="#8A0000"/>
<path d="M105.222 438.387C32.0112 451.072 -29.8134 615.909 105.223 700L105.222 438.387Z" fill="#8A0000"/>
<path d="M105.478 699.4L105.477 638.797L113.918 665.798C120.552 658.444 122.45 651.607 125.428 638.797C127.446 650.582 128.475 657.163 125.428 667.598C136.025 657.744 139.426 651.687 143.844 637.597C144.941 650.088 146.4 657.518 141.542 666.998C170.576 648.844 178.49 626.622 190.65 584.194C195.212 613.435 194.29 628.17 179.908 648.398C190.361 641.92 194.302 638.071 199.858 630.997C197.461 644.589 193.912 651.922 179.908 663.998C166.016 663.561 152.919 677.637 130.799 699.4H105.478Z" fill="#1D0043" stroke="#1D0043"/>
<path d="M104.966 699.4L104.967 638.797L96.5253 665.798C89.8909 658.444 87.9933 651.607 85.0155 638.797C82.9975 650.582 81.9681 657.163 85.0155 667.598C74.4184 657.744 71.0176 651.687 66.5998 637.597C65.5025 650.088 64.0431 657.518 68.9018 666.998C39.8673 648.844 31.9534 626.622 19.7933 584.194C15.2318 613.435 16.1536 628.17 30.5357 648.398C20.0827 641.92 16.141 638.071 10.5854 630.997C12.9825 644.589 16.5309 651.922 30.5357 663.998C44.4276 663.561 57.5242 677.637 79.6443 699.4H104.966Z" fill="#1D0043" stroke="#1D0043"/>
<path fill-rule="evenodd" clip-rule="evenodd" d="M105.223 438.988V605.196C113.631 615.981 116.322 622.022 114.499 632.797C123.941 624.251 127.672 618.425 129.96 605.196C135.383 614.952 134.608 620.866 133.427 629.875L133.427 629.876C133.304 630.813 133.177 631.785 133.052 632.797C144.47 621.995 148.14 615.666 150.832 603.996C157.385 610.627 157.506 616.758 157.729 628.131C157.747 629.051 157.766 630.005 157.789 630.997C171.667 614.562 177.315 604.501 171.704 583.595L150.832 589.595C158.829 571.236 166.103 562.764 187.164 552.99C204.944 501.99 155.795 436.886 105.223 438.988ZM115.929 579.994L114.399 566.194C123.459 573.924 127.937 579.031 127.4 590.195L115.929 579.994ZM163.961 514.371C165.067 513.585 166.179 512.795 167.297 511.995C168.4 511.206 169.968 511.714 170.267 513.038C171.554 518.749 170.265 523.101 166.612 535.438C165.914 537.793 165.131 540.44 164.262 543.442C162.006 546.738 152.84 548.234 135.08 551.133C133.806 551.341 132.486 551.556 131.122 551.78C129.541 552.039 128.318 550.432 129.065 549.014C137.349 533.288 150.096 524.227 163.961 514.371Z" fill="#1D0043"/>
<path d="M105.223 605.196H104.723V605.368L104.828 605.503L105.223 605.196ZM105.223 438.988L105.202 438.488L104.723 438.508V438.988H105.223ZM114.499 632.797L114.006 632.714L113.766 634.135L114.835 633.168L114.499 632.797ZM129.96 605.196L130.397 604.953L129.708 603.715L129.467 605.111L129.96 605.196ZM133.427 629.875L132.932 629.81L132.931 629.813L133.427 629.875ZM133.427 629.876L133.923 629.941L133.923 629.938L133.427 629.876ZM133.052 632.797L132.556 632.736L132.385 634.116L133.396 633.16L133.052 632.797ZM150.832 603.996L151.187 603.644L150.549 602.998L150.345 603.883L150.832 603.996ZM157.729 628.131L157.229 628.14L157.729 628.131ZM157.789 630.997L157.289 631.009L157.32 632.328L158.171 631.32L157.789 630.997ZM171.704 583.595L172.187 583.465L172.055 582.974L171.566 583.114L171.704 583.595ZM150.832 589.595L150.373 589.395L149.949 590.369L150.97 590.076L150.832 589.595ZM187.164 552.99L187.375 553.443L187.567 553.354L187.636 553.154L187.164 552.99ZM114.399 566.194L114.724 565.813L113.763 564.994L113.902 566.249L114.399 566.194ZM115.929 579.994L115.432 580.049L115.453 580.24L115.597 580.368L115.929 579.994ZM127.4 590.195L127.068 590.569L127.85 591.263L127.9 590.219L127.4 590.195ZM167.297 511.995L167.006 511.588H167.006L167.297 511.995ZM163.961 514.371L164.251 514.779L163.961 514.371ZM170.267 513.038L169.779 513.148L170.267 513.038ZM166.612 535.438L167.091 535.58L166.612 535.438ZM164.262 543.442L164.675 543.724L164.72 543.658L164.742 543.581L164.262 543.442ZM135.08 551.133L135.161 551.626H135.161L135.08 551.133ZM131.122 551.78L131.203 552.273L131.122 551.78ZM129.065 549.014L129.507 549.247L129.065 549.014ZM105.723 605.196V438.988H104.723V605.196H105.723ZM114.992 632.88C115.914 627.431 115.7 623.137 114.169 618.833C112.644 614.547 109.827 610.288 105.617 604.888L104.828 605.503C109.027 610.889 111.759 615.043 113.227 619.168C114.687 623.274 114.907 627.388 114.006 632.714L114.992 632.88ZM129.467 605.111C128.329 611.692 126.838 616.394 124.479 620.504C122.118 624.615 118.869 628.167 114.164 632.426L114.835 633.168C119.571 628.881 122.909 625.247 125.346 621.001C127.784 616.754 129.303 611.928 130.452 605.281L129.467 605.111ZM133.923 629.94C134.512 625.447 135.01 621.66 134.668 617.772C134.325 613.867 133.137 609.882 130.397 604.953L129.523 605.439C132.206 610.265 133.343 614.116 133.672 617.859C134.003 621.619 133.523 625.294 132.932 629.81L133.923 629.94ZM133.923 629.938L133.923 629.937L132.931 629.813L132.931 629.814L133.923 629.938ZM133.548 632.858C133.673 631.848 133.8 630.879 133.923 629.941L132.931 629.811C132.809 630.748 132.681 631.721 132.556 632.736L133.548 632.858ZM150.345 603.883C149.006 609.687 147.431 614.131 144.787 618.461C142.14 622.798 138.404 627.045 132.708 632.434L133.396 633.16C139.118 627.747 142.926 623.429 145.641 618.983C148.359 614.53 149.966 609.975 151.319 604.108L150.345 603.883ZM158.229 628.121C158.118 622.452 158.033 618.017 157.141 614.172C156.243 610.297 154.528 607.024 151.187 603.644L150.476 604.347C153.69 607.599 155.312 610.707 156.167 614.398C157.03 618.12 157.117 622.437 157.229 628.14L158.229 628.121ZM158.289 630.985C158.266 629.995 158.247 629.041 158.229 628.121L157.229 628.14C157.247 629.06 157.266 630.016 157.289 631.009L158.289 630.985ZM171.221 583.724C174.009 594.113 173.986 601.749 171.582 608.812C169.17 615.897 164.345 622.458 157.407 630.674L158.171 631.32C165.111 623.101 170.05 616.414 172.528 609.134C175.015 601.831 175.01 593.983 172.187 583.465L171.221 583.724ZM150.97 590.076L171.842 584.075L171.566 583.114L150.694 589.114L150.97 590.076ZM186.954 552.536C176.395 557.437 169.251 562.029 163.74 567.725C158.229 573.422 154.382 580.193 150.373 589.395L151.29 589.795C155.279 580.638 159.068 573.993 164.459 568.421C169.85 562.848 176.872 558.318 187.375 553.443L186.954 552.536ZM105.243 439.487C130.311 438.445 155.099 454.068 171.422 476.371C187.743 498.67 195.512 527.525 186.692 552.825L187.636 553.154C196.596 527.455 188.681 498.258 172.229 475.78C155.78 453.306 130.707 437.428 105.202 438.488L105.243 439.487ZM113.902 566.249L115.432 580.049L116.426 579.939L114.896 566.139L113.902 566.249ZM127.9 590.219C128.172 584.557 127.171 580.388 124.927 576.649C122.696 572.934 119.253 569.678 114.724 565.813L114.075 566.574C118.605 570.439 121.931 573.603 124.069 577.164C126.195 580.703 127.165 584.669 126.901 590.171L127.9 590.219ZM115.597 580.368L127.068 590.569L127.733 589.821L116.261 579.621L115.597 580.368ZM167.006 511.588C165.889 512.387 164.777 513.178 163.672 513.964L164.251 514.779C165.356 513.993 166.469 513.202 167.588 512.402L167.006 511.588ZM170.754 512.928C170.368 511.215 168.366 510.616 167.006 511.588L167.588 512.402C168.435 511.796 169.568 512.213 169.779 513.148L170.754 512.928ZM167.091 535.58C170.731 523.288 172.077 518.794 170.754 512.928L169.779 513.148C171.031 518.705 169.799 522.914 166.132 535.296L167.091 535.58ZM164.742 543.581C165.61 540.58 166.394 537.935 167.091 535.58L166.132 535.296C165.435 537.651 164.651 540.299 163.782 543.303L164.742 543.581ZM135.161 551.626C144.032 550.178 150.786 549.076 155.601 547.922C158.01 547.345 159.956 546.75 161.452 546.083C162.941 545.418 164.034 544.659 164.675 543.724L163.85 543.16C163.361 543.872 162.463 544.536 161.044 545.17C159.631 545.8 157.754 546.378 155.368 546.95C150.597 548.093 143.888 549.188 135 550.639L135.161 551.626ZM131.203 552.273C132.567 552.05 133.886 551.834 135.161 551.626L135 550.639C133.725 550.847 132.406 551.063 131.041 551.286L131.203 552.273ZM128.622 548.781C127.669 550.59 129.243 552.595 131.203 552.273L131.041 551.286C129.838 551.484 128.966 550.274 129.507 549.247L128.622 548.781ZM163.672 513.964C149.818 523.811 136.97 532.935 128.622 548.781L129.507 549.247C137.728 533.642 150.375 524.643 164.251 514.779L163.672 513.964Z" fill="#1D0043"/>
<path fill-rule="evenodd" clip-rule="evenodd" d="M105.223 438.988V605.196C96.8143 615.981 94.1232 622.022 95.9462 632.797C86.5038 624.251 82.7733 618.425 80.4855 605.196C75.0621 614.952 75.8372 620.866 77.018 629.875L77.0181 629.876C77.141 630.813 77.2682 631.785 77.3934 632.797C65.9754 621.995 62.3057 615.666 59.6136 603.996C53.0598 610.627 52.9394 616.758 52.716 628.131L52.7159 628.133C52.6979 629.052 52.6791 630.006 52.6563 630.997C38.778 614.562 33.1302 604.501 38.7416 583.595L59.6136 589.595C51.616 571.236 44.3419 562.764 23.2809 552.99C5.50114 501.99 54.65 436.886 105.223 438.988ZM94.5165 579.994L96.046 566.194C86.9868 573.924 82.5088 579.031 83.0448 590.195L94.5165 579.994ZM46.4832 514.371C45.3779 513.585 44.2656 512.795 43.1478 511.995C42.0442 511.206 40.4763 511.714 40.1779 513.038C38.8904 518.749 40.1791 523.101 43.8327 535.438C44.5302 537.793 45.3139 540.44 46.1824 543.442C48.4388 546.738 57.6046 548.234 75.364 551.133C76.6389 551.341 77.9581 551.556 79.3222 551.78C80.9039 552.039 82.1269 550.432 81.3798 549.014C73.0955 533.288 60.3483 524.227 46.4832 514.371Z" fill="#1D0043"/>
<path d="M105.223 605.196H105.723V605.368L105.617 605.503L105.223 605.196ZM105.223 438.988L105.243 438.488L105.723 438.508V438.988H105.223ZM95.9462 632.797L96.4392 632.714L96.6798 634.135L95.6107 633.168L95.9462 632.797ZM80.4855 605.196L80.0485 604.953L80.7368 603.715L80.9782 605.111L80.4855 605.196ZM77.018 629.875L77.5138 629.81L77.5142 629.813L77.018 629.875ZM77.0181 629.876L76.5223 629.941L76.5219 629.938L77.0181 629.876ZM77.3934 632.797L77.8896 632.736L78.0603 634.116L77.0498 633.16L77.3934 632.797ZM59.6136 603.996L59.258 603.644L59.8966 602.998L60.1008 603.883L59.6136 603.996ZM52.716 628.131L53.2159 628.14L53.2159 628.141L52.716 628.131ZM52.7159 628.133L52.216 628.123V628.123L52.7159 628.133ZM52.6563 630.997L53.1561 631.009L53.1257 632.328L52.2743 631.32L52.6563 630.997ZM38.7416 583.595L38.2587 583.465L38.3907 582.974L38.8798 583.114L38.7416 583.595ZM59.6136 589.595L60.072 589.395L60.4961 590.369L59.4754 590.076L59.6136 589.595ZM23.2809 552.99L23.0705 553.443L22.8785 553.354L22.8088 553.154L23.2809 552.99ZM96.046 566.194L95.7214 565.813L96.6821 564.994L96.543 566.249L96.046 566.194ZM94.5165 579.994L95.0134 580.049L94.9923 580.24L94.8487 580.368L94.5165 579.994ZM83.0448 590.195L83.3771 590.569L82.5955 591.263L82.5454 590.219L83.0448 590.195ZM43.1478 511.995L43.4387 511.588L43.1478 511.995ZM46.4832 514.371L46.1935 514.779L46.4832 514.371ZM40.1779 513.038L40.6657 513.148L40.1779 513.038ZM43.8327 535.438L44.3121 535.296L43.8327 535.438ZM46.1824 543.442L45.7698 543.724L45.7244 543.658L45.7021 543.581L46.1824 543.442ZM75.364 551.133L75.2834 551.626H75.2834L75.364 551.133ZM79.3222 551.78L79.2412 552.273L79.3222 551.78ZM81.3798 549.014L80.9374 549.247L81.3798 549.014ZM104.723 605.196V438.988H105.723V605.196H104.723ZM95.4532 632.88C94.5312 627.431 94.7454 623.137 96.2766 618.833C97.801 614.547 100.619 610.288 104.828 604.888L105.617 605.503C101.418 610.889 98.6862 615.043 97.2188 619.168C95.7581 623.274 95.5382 627.388 96.4392 632.714L95.4532 632.88ZM80.9782 605.111C82.1165 611.692 83.6072 616.394 85.9665 620.504C88.3272 624.615 91.576 628.167 96.2818 632.426L95.6107 633.168C90.8741 628.881 87.5364 625.247 85.0993 621.001C82.6608 616.754 81.1423 611.928 79.9928 605.281L80.9782 605.111ZM76.5223 629.94C75.9333 625.447 75.4349 621.66 75.7771 617.772C76.1207 613.867 77.3084 609.882 80.0485 604.953L80.9225 605.439C78.2392 610.265 77.1027 614.116 76.7732 617.859C76.4424 621.619 76.9219 625.294 77.5138 629.81L76.5223 629.94ZM76.5219 629.938L76.5219 629.937L77.5142 629.813L77.5142 629.814L76.5219 629.938ZM76.8972 632.858C76.7723 631.848 76.6452 630.879 76.5223 629.941L77.5138 629.811C77.6367 630.748 77.7642 631.721 77.8896 632.736L76.8972 632.858ZM60.1008 603.883C61.4395 609.687 63.0141 614.131 65.6581 618.461C68.3058 622.798 72.0413 627.045 77.737 632.434L77.0498 633.16C71.3275 627.747 67.5193 623.429 64.8046 618.983C62.0862 614.53 60.4798 609.975 59.1264 604.108L60.1008 603.883ZM52.2161 628.121C52.3274 622.452 52.4123 618.017 53.3038 614.172C54.2025 610.297 55.9178 607.024 59.258 603.644L59.9692 604.347C56.7557 607.599 55.1338 610.707 54.278 614.398C53.4151 618.12 53.3279 622.437 53.2159 628.14L52.2161 628.121ZM52.216 628.123L52.2161 628.121L53.2159 628.141L53.2158 628.143L52.216 628.123ZM52.1564 630.985C52.1792 629.995 52.198 629.043 52.216 628.123L53.2158 628.143C53.1978 629.062 53.179 630.017 53.1561 631.009L52.1564 630.985ZM39.2245 583.724C36.4361 594.113 36.4593 601.749 38.8636 608.812C41.2758 615.897 46.1004 622.458 53.0383 630.674L52.2743 631.32C45.3339 623.101 40.3954 616.414 37.917 609.134C35.4307 601.831 35.4357 593.983 38.2587 583.465L39.2245 583.724ZM59.4754 590.076L38.6035 584.075L38.8798 583.114L59.7517 589.114L59.4754 590.076ZM23.4914 552.536C34.0498 557.437 41.1948 562.029 46.7054 567.725C52.2166 573.422 56.0632 580.193 60.072 589.395L59.1552 589.795C55.1664 580.638 51.3771 573.993 45.9867 568.421C40.5956 562.848 33.5731 558.318 23.0705 553.443L23.4914 552.536ZM105.202 439.487C80.1347 438.445 55.3466 454.068 39.0231 476.371C22.7021 498.67 14.9329 527.525 23.7531 552.825L22.8088 553.154C13.8492 527.455 21.7645 498.258 38.2162 475.78C54.6653 453.306 79.738 437.428 105.243 438.488L105.202 439.487ZM96.543 566.249L95.0134 580.049L94.0195 579.939L95.5491 566.139L96.543 566.249ZM82.5454 590.219C82.2736 584.557 83.2738 580.388 85.5185 576.649C87.7497 572.934 91.192 569.678 95.7214 565.813L96.3706 566.574C91.8408 570.439 88.5145 573.603 86.3759 577.164C84.2508 580.703 83.2801 584.669 83.5442 590.171L82.5454 590.219ZM94.8487 580.368L83.3771 590.569L82.7126 589.821L94.1842 579.621L94.8487 580.368ZM43.4387 511.588C44.5558 512.387 45.6675 513.178 46.7729 513.964L46.1935 514.779C45.0884 513.993 43.9754 513.202 42.8569 512.402L43.4387 511.588ZM39.6902 512.928C40.0763 511.215 42.0785 510.616 43.4387 511.588L42.8569 512.402C42.0099 511.796 40.8763 512.213 40.6657 513.148L39.6902 512.928ZM43.3533 535.58C39.713 523.288 38.3678 518.794 39.6902 512.928L40.6657 513.148C39.413 518.705 40.6453 522.914 44.3121 535.296L43.3533 535.58ZM45.7021 543.581C44.8341 540.58 44.0508 537.935 43.3533 535.58L44.3121 535.296C45.0096 537.651 45.7938 540.299 46.6627 543.303L45.7021 543.581ZM75.2834 551.626C66.4122 550.178 59.6588 549.076 54.8431 547.922C52.4348 547.345 50.4881 546.75 48.9927 546.083C47.5038 545.418 46.41 544.659 45.7698 543.724L46.5949 543.16C47.083 543.872 47.981 544.536 49.4003 545.17C50.8131 545.8 52.691 546.378 55.0761 546.95C59.8472 548.093 66.5564 549.188 75.4445 550.639L75.2834 551.626ZM79.2412 552.273C77.8773 552.05 76.5583 551.834 75.2834 551.626L75.4445 550.639C76.7194 550.847 78.0388 551.063 79.4031 551.286L79.2412 552.273ZM81.8221 548.781C82.7751 550.59 81.2019 552.595 79.2412 552.273L79.4031 551.286C80.606 551.484 81.4787 550.274 80.9374 549.247L81.8221 548.781ZM46.7729 513.964C60.6266 523.811 73.4745 532.935 81.8221 548.781L80.9374 549.247C72.7166 533.642 60.0699 524.643 46.1935 514.779L46.7729 513.964Z" fill="#1D0043"/>
<path d="M160.287 495.39C145.429 488.592 140.53 482.396 141.167 464.788L174.052 424.587C171.494 392.449 174.813 375.18 202.349 347.783C201.651 382.121 197.782 413.531 210.445 437.243C193.864 467.263 191.787 476.124 160.287 495.39Z" fill="#8A0000"/>
<path d="M50.1574 495.39C65.0156 488.592 69.9141 482.396 69.2769 464.788L36.3919 424.587C38.9499 392.449 35.6312 375.18 8.09518 347.783C8.79377 382.121 12.6621 413.531 -0.000213623 437.243C16.5803 467.263 18.6573 476.124 50.1574 495.39Z" fill="#8A0000"/>
<path d="M87.6396 443.494L87.6396 138.433L95.3814 138.433L123.371 138.433L123.371 443.494L87.6396 443.494Z" fill="#1C0500"/>
<line x1="88.2344" y1="160.624" x2="122.774" y2="160.624" stroke="white"/>
<line x1="88.2344" y1="202.853" x2="122.774" y2="202.853" stroke="white"/>
<line x1="88.2344" y1="221.447" x2="122.774" y2="221.447" stroke="white"/>
<line x1="88.2344" y1="240.355" x2="122.774" y2="240.355" stroke="white"/>
<line x1="88.2344" y1="256.743" x2="122.774" y2="256.743" stroke="white"/>
<line x1="88.2344" y1="273.13" x2="122.774" y2="273.13" stroke="white"/>
<line x1="88.2344" y1="288.258" x2="122.774" y2="288.258" stroke="white"/>
<line x1="88.2344" y1="303.069" x2="122.774" y2="303.069" stroke="white"/>
<line x1="88.2344" y1="316.306" x2="122.774" y2="316.306" stroke="white"/>
<line x1="88.2344" y1="328.911" x2="122.774" y2="328.911" stroke="white"/>
<line x1="88.2344" y1="340.887" x2="122.774" y2="340.887" stroke="white"/>
<line x1="88.2344" y1="352.232" x2="122.774" y2="352.232" stroke="white"/>
<line x1="88.2344" y1="362.317" x2="122.774" y2="362.317" stroke="white"/>
<line x1="88.2344" y1="373.032" x2="122.774" y2="373.032" stroke="white"/>
<line x1="88.2344" y1="381.856" x2="122.774" y2="381.856" stroke="white"/>
<line x1="88.2344" y1="390.68" x2="122.774" y2="390.68" stroke="white"/>
<line x1="88.2344" y1="398.874" x2="122.774" y2="398.874" stroke="white"/>
<line x1="88.2344" y1="407.067" x2="122.774" y2="407.067" stroke="white"/>
<line x1="88.2344" y1="413.37" x2="122.774" y2="413.37" stroke="white"/>
<line x1="88.2344" y1="420.934" x2="122.774" y2="420.934" stroke="white"/>
<line x1="88.2344" y1="427.237" x2="122.774" y2="427.237" stroke="white"/>
<path d="M88.2344 432.779L122.774 432.779" stroke="white"/>
<line x1="88.2344" y1="438.582" x2="122.774" y2="438.582" stroke="white"/>
<line x1="88.2344" y1="182.053" x2="122.774" y2="182.053" stroke="white"/>
<path d="M105.504 196.42L118.397 189.802L92.6108 189.802L105.504 196.42Z" fill="white"/>
<path d="M105.504 234.237L118.397 227.619L92.6108 227.619L105.504 234.237Z" fill="white"/>
<path d="M105.504 268.273L118.397 261.655L92.6108 261.655L105.504 268.273Z" fill="white"/>
<path d="M105.504 299.788L118.397 293.17L92.6108 293.17L105.504 299.788Z" fill="white"/>
<path d="M104.824 337.605L114.033 332.878L95.6142 332.878L104.824 337.605Z" fill="white"/>
<path d="M104.824 370.38L114.033 365.653L95.6142 365.653L104.824 370.38Z" fill="white"/>
<path d="M104.824 388.659L114.033 383.932L95.6142 383.932L104.824 388.659Z" fill="white"/>
<path d="M104.486 405.046L111.34 401.528L97.6316 401.528L104.486 405.046Z" fill="white"/>
<path d="M104.486 418.913L111.34 415.395L97.6316 415.395L104.486 418.913Z" fill="white"/>
<path d="M105.462 437.191L110.066 434.828L100.857 434.828L105.462 437.191Z" fill="white"/>
<rect x="87.6074" y="107.437" width="35.4432" height="31.0128" fill="black"/>
<path d="M104.779 122.39L104.779 103.007L84.289 75.3169C86.4004 48.7906 84.3479 22.614 61.6195 0C62.1961 28.3427 70.3733 55.7449 59.9217 75.3169C88.1656 93.4066 77.0895 109.653 104.779 122.39Z" fill="#8A0000"/>
<path d="M104.779 122.39L104.78 103.007L125.27 75.3169C123.158 48.7906 125.211 22.614 147.939 0C147.363 28.3427 139.186 55.7449 149.637 75.3169C121.393 93.4065 132.469 109.652 104.779 122.39Z" fill="#8A0000"/>
<path d="M75.8871 30.9946C75.8871 33.369 74.0701 35.2816 71.8434 35.2816C69.6168 35.2816 67.7998 33.369 67.7998 30.9946C67.7998 28.6201 69.6168 26.7075 71.8434 26.7075C74.0701 26.7075 75.8871 28.6201 75.8871 30.9946Z" fill="black" stroke="#2E2E2E" stroke-width="0.25"/>
<path d="M74.4986 30.9946C74.4986 32.5568 73.3037 33.8109 71.8445 33.8109C70.3853 33.8109 69.1904 32.5568 69.1904 30.9946C69.1904 29.4324 70.3853 28.1782 71.8445 28.1782C73.3037 28.1782 74.4986 29.4324 74.4986 30.9946Z" fill="black" stroke="#2E2E2E" stroke-width="0.25"/>
<path d="M78.1019 48.716C78.1019 51.0904 76.2849 53.003 74.0583 53.003C71.8316 53.003 70.0146 51.0904 70.0146 48.716C70.0146 46.3415 71.8316 44.429 74.0583 44.429C76.2849 44.429 78.1019 46.3415 78.1019 48.716Z" fill="black" stroke="#2E2E2E" stroke-width="0.25"/>
<path d="M76.7144 48.7163C76.7144 50.2785 75.5196 51.5326 74.0603 51.5326C72.6011 51.5326 71.4062 50.2785 71.4062 48.7163C71.4062 47.1541 72.6011 45.8999 74.0603 45.8999C75.5196 45.8999 76.7144 47.1541 76.7144 48.7163Z" fill="black" stroke="#2E2E2E" stroke-width="0.25"/>
<path d="M79.4427 66.3273C79.4427 68.7018 77.6257 70.6144 75.3991 70.6144C73.1724 70.6144 71.3555 68.7018 71.3555 66.3273C71.3555 63.9529 73.1724 62.0403 75.3991 62.0403C77.6257 62.0403 79.4427 63.9529 79.4427 66.3273Z" fill="black" stroke="#2E2E2E" stroke-width="0.25"/>
<path d="M78.0543 66.3273C78.0543 67.8896 76.8594 69.1437 75.4002 69.1437C73.941 69.1437 72.7461 67.8896 72.7461 66.3273C72.7461 64.7651 73.941 63.511 75.4002 63.511C76.8594 63.511 78.0543 64.7651 78.0543 66.3273Z" fill="black" stroke="#2E2E2E" stroke-width="0.25"/>
<path d="M133.224 30.9946C133.224 33.3745 134.963 35.2816 137.083 35.2816C139.203 35.2816 140.942 33.3745 140.942 30.9946C140.942 28.6146 139.203 26.7075 137.083 26.7075C134.963 26.7075 133.224 28.6146 133.224 30.9946Z" fill="black" stroke="#2E2E2E" stroke-width="0.25"/>
<path d="M134.551 30.9946C134.551 32.5623 135.696 33.8109 137.082 33.8109C138.468 33.8109 139.613 32.5623 139.613 30.9946C139.613 29.4269 138.468 28.1782 137.082 28.1782C135.696 28.1782 134.551 29.4269 134.551 30.9946Z" fill="black" stroke="#2E2E2E" stroke-width="0.25"/>
<path d="M131.105 48.716C131.105 51.096 132.845 53.003 134.965 53.003C137.085 53.003 138.824 51.096 138.824 48.716C138.824 46.336 137.085 44.429 134.965 44.429C132.845 44.429 131.105 46.336 131.105 48.716Z" fill="black" stroke="#2E2E2E" stroke-width="0.25"/>
<path d="M132.433 48.7163C132.433 50.284 133.578 51.5326 134.964 51.5326C136.35 51.5326 137.495 50.284 137.495 48.7163C137.495 47.1485 136.35 45.8999 134.964 45.8999C133.578 45.8999 132.433 47.1485 132.433 48.7163Z" fill="black" stroke="#2E2E2E" stroke-width="0.25"/>
<path d="M129.825 66.3276C129.825 68.7075 131.565 70.6146 133.685 70.6146C135.804 70.6146 137.544 68.7075 137.544 66.3276C137.544 63.9476 135.804 62.0405 133.685 62.0405C131.565 62.0405 129.825 63.9476 129.825 66.3276Z" fill="black" stroke="#2E2E2E" stroke-width="0.25"/>
<path d="M131.152 66.3278C131.152 67.8956 132.297 69.1442 133.684 69.1442C135.07 69.1442 136.215 67.8956 136.215 66.3278C136.215 64.7601 135.07 63.5115 133.684 63.5115C132.297 63.5115 131.152 64.7601 131.152 66.3278Z" fill="black" stroke="#2E2E2E" stroke-width="0.25"/>
<rect x="83.3359" y="460.132" width="42.3598" height="19.6693" rx="0.75" fill="black" stroke="black" stroke-width="0.5"/>
<rect x="83.3359" y="508.034" width="42.3598" height="19.6693" rx="0.75" fill="black" stroke="black" stroke-width="0.5"/>
<rect x="83.3359" y="540.809" width="43.6204" height="22.8208" rx="0.75" fill="black" stroke="black" stroke-width="0.5"/>
<rect x="87.9814" y="541.945" width="4.51977" height="19.289" rx="0.875" fill="black" stroke="#2E2E2E" stroke-width="0.25"/>
<rect x="99.9053" y="541.945" width="4.51977" height="19.289" rx="0.875" fill="black" stroke="#2E2E2E" stroke-width="0.25"/>
<rect x="111.83" y="541.945" width="4.51977" height="19.289" rx="0.875" fill="black" stroke="#2E2E2E" stroke-width="0.25"/>
<rect x="117.793" y="541.945" width="4.51977" height="19.289" rx="0.875" fill="black" stroke="#2E2E2E" stroke-width="0.25"/>
<rect x="93.9434" y="541.945" width="4.51977" height="19.289" rx="0.875" fill="black" stroke="#2E2E2E" stroke-width="0.25"/>
<rect x="105.868" y="541.945" width="4.51977" height="19.289" rx="0.875" fill="black" stroke="#2E2E2E" stroke-width="0.25"/>
<path d="M90.3415 138.471L75.9815 70.3324" stroke="#FFA800" stroke-width="0.5"/>
<path d="M96.2969 138.462L74.8752 53.1647" stroke="#FFA800" stroke-width="0.5"/>
<path d="M102.249 138.454L74.5 34.5" stroke="#FFA800" stroke-width="0.5"/>
<path d="M108.205 138.447L135.239 34.889" stroke="#FFA800" stroke-width="0.5"/>
<path d="M114.159 138.433L133.577 52.6108" stroke="#FFA800" stroke-width="0.5"/>
<path d="M120.116 138.418L133.023 70.3323" stroke="#FFA800" stroke-width="0.5"/>
<line x1="90.3662" y1="541.82" x2="90.3662" y2="138.434" stroke="#FFA800" stroke-width="0.5"/>
<line x1="96.3213" y1="541.82" x2="96.3213" y2="138.434" stroke="#FFA800" stroke-width="0.5"/>
<line x1="102.276" y1="541.82" x2="102.276" y2="138.434" stroke="#FFA800" stroke-width="0.5"/>
<line x1="108.232" y1="541.82" x2="108.232" y2="138.434" stroke="#FFA800" stroke-width="0.5"/>
<line x1="114.188" y1="541.82" x2="114.188" y2="138.434" stroke="#FFA800" stroke-width="0.5"/>
<line x1="120.143" y1="541.82" x2="120.143" y2="138.434" stroke="#FFA800" stroke-width="0.5"/>
</svg>
