<svg width="1228" height="430" viewBox="0 0 1228 430" fill="none" xmlns="http://www.w3.org/2000/svg">
<path fill-rule="evenodd" clip-rule="evenodd" d="M384 149.5L0 0L33.5 58H40C246 227 253.5 261 154.5 371L130 429.5C154.772 419.215 180.324 407.816 205.289 396.678L205.292 396.677C275.408 365.397 340.897 336.182 371.5 339.5C392.313 342.322 459.833 366.662 532.793 392.962L532.795 392.963L532.797 392.964C563.251 403.941 594.652 415.261 624 425.5L587 377.5L585.369 376.341C546.933 349.029 524.89 333.365 485.5 298.5C476.729 286.41 474 276 485.5 270.5L1004 259C1014.96 259.295 1020.83 263.729 1031 277L1216.5 222.5C1213.1 212.929 1214.09 207.481 1225.5 197.5C1228.52 193.687 1228.79 191.691 1225.5 188.5C1153.94 195.898 1110.5 195.5 1043 186.5C1042.43 187.07 1041.87 187.629 1041.33 188.176C1027.51 202.019 1021.08 208.46 1002.5 208.5L501 198.5C478.872 181.925 509.5 149.5 574.5 146.5L531 118L384 149.5ZM332 196C332 193.791 333.791 192 336 192H367C369.209 192 371 193.791 371 196V271C371 273.209 369.209 275 367 275H336C333.791 275 332 273.209 332 271V196ZM428 191C425.791 191 424 192.791 424 195V270C424 272.209 425.791 274 428 274H459C461.209 274 463 272.209 463 270V195C463 192.791 461.209 191 459 191H428Z" fill="white"/>
</svg>
