<svg width="601" height="230" viewBox="0 0 601 230" fill="none" xmlns="http://www.w3.org/2000/svg">
<path fill-rule="evenodd" clip-rule="evenodd" d="M245 83.6328L281.425 63.1783C336.402 79.5617 362.64 84.2165 403.757 86.8146C405.25 86.5747 406.718 86.3384 408.16 86.1062C441.207 80.7867 461.04 77.5941 474.315 80.2237C530.98 85.8171 557.293 95.6819 601 117.269L245 117.269V83.6328ZM245 117.269V150.906L281.425 171.36C336.402 154.977 362.64 150.322 403.757 147.724C405.25 147.964 406.718 148.2 408.16 148.432C441.207 153.752 461.04 156.944 474.315 154.315C530.98 148.721 557.293 138.857 601 117.269L245 117.269Z" fill="white"/>
<path fill-rule="evenodd" clip-rule="evenodd" d="M244.998 95.4328L278.903 77.2703C292.597 80.0886 304.38 82.7249 315.027 85.107C344.208 91.6359 364.855 96.2553 392.926 97.4803C394.317 97.3258 395.685 97.1738 397.029 97.0244C427.821 93.6013 446.301 91.5469 458.671 93.239C511.47 96.8383 535.989 103.186 576.714 117.077H576.715C576.715 117.078 576.715 117.078 576.714 117.078C576.715 117.078 576.715 117.078 576.715 117.078H576.714C535.989 130.969 511.47 137.317 458.671 140.916C446.301 142.608 427.821 140.554 397.029 137.131C395.685 136.981 394.317 136.829 392.926 136.675C366.274 137.838 346.869 142.358 320.28 148.55C308.647 151.259 295.64 154.289 280.048 157.498L244.998 138.722V117.078V117.077V95.4328Z" fill="white"/>
<rect x="193" y="100.531" width="33.275" height="144.725" transform="rotate(90 193 100.531)" fill="white"/>
<path d="M222.746 25.9199L247.008 2.36464V227.092L222.746 203.301V25.9199Z" fill="white" stroke="white" stroke-width="2"/>
<path d="M252.396 102.213L252.396 132.816L229.114 156.68L190.457 132.666L190.457 102.359L229.097 73.2821L252.396 102.213Z" fill="white" stroke="white" stroke-width="2"/>
<path fill-rule="evenodd" clip-rule="evenodd" d="M14.3803 142.863C8.63046 140.264 3.91853 135.811 0.998367 130.218L10.3691 125.326C13.3124 130.953 19.2058 134.793 25.9961 134.793C35.7298 134.793 43.6206 126.902 43.6206 117.168C43.6206 107.434 35.7298 99.5437 25.9961 99.5437C19.2067 99.5437 13.3139 103.383 10.3702 109.009L0.999393 104.116C3.92001 98.5221 8.63228 94.0698 14.3823 91.471C20.1324 88.8722 26.588 88.2771 32.7162 89.7808C38.8445 91.2846 44.2914 94.8003 48.1854 99.7655C52.0794 104.731 54.1956 110.859 54.1953 117.169C54.1951 123.479 52.0784 129.606 48.184 134.571C44.2896 139.536 38.8425 143.052 32.7141 144.555C26.5857 146.058 20.1302 145.462 14.3803 142.863Z" fill="white"/>
</svg>
