<svg width="530" height="200" viewBox="0 0 530 200" fill="none" xmlns="http://www.w3.org/2000/svg">
<path fill-rule="evenodd" clip-rule="evenodd" d="M526.811 146.044C435.049 201.619 126.159 209.373 4.67053 191.279C0.803475 188.694 -3.54777 132.23 4.67053 125.365L21.4816 115.026C34.6918 60.4365 43.3543 37.4198 61.5468 12.9243L79.6408 16.8016C139.369 85.832 188.205 49.1122 203.714 0L506.142 125.365C527.171 133.38 534.416 137.894 526.811 146.044ZM200.5 58.986V91.382L198.947 90.6056L197.954 90.1088L197.564 91.1489L196.064 95.1489L197.936 95.8511L199.046 92.8912L201.053 93.8944L201.082 93.909L201.112 93.9216L215.548 100H207V102H218.5V101.243L220.112 101.922L221.016 102.302L221.414 101.406L223.414 96.9061L221.586 96.0939L219.984 99.6979L202.5 92.336V58.0932C203.902 57.5151 205.383 56.9972 206.932 56.5402C212.907 54.7763 219.79 53.9414 226.679 54.0032C233.566 54.065 240.423 55.0229 246.342 56.8192C248.357 57.4306 250.253 58.1362 252 58.9313V92.3429L234.934 99.7227L232.874 96.0144L231.126 96.9856L233.626 101.486L234.066 102.277L234.897 101.918L236.5 101.225V102H246.5V100H239.332L253.397 93.9179L253.422 93.9068L253.447 93.8944L255.454 92.8912L256.564 95.8511L258.436 95.1489L256.936 91.1489L256.546 90.1088L255.553 90.6056L254 91.382V59.9163C256.403 61.1972 258.452 62.6707 260.044 64.322L269.459 147.079L260.5 158.278V132.5V132.086L260.207 131.793L249.207 120.793L247.793 122.207L258.5 132.914V160.778L252 168.903V144.5H250V171.403L246.019 176.379H244V144.5H242V176.379H236V144.5H234V176.379H228.5V144.5H226.5V176.379H220.5V144.5H218.5V176.379H212.5V144.5H210.5V176.379H207.974L204 171.512V144.5H202V169.063L195.415 161H195.5V132.927L206.691 122.223L205.309 120.777L193.809 131.777L193.5 132.073V132.5V158.655L184.039 147.07L192.959 64.3106C194.906 62.223 197.475 60.4465 200.5 58.986ZM226.529 120.382L219.029 116.382L219.971 114.618L227 118.367L234.029 114.618L234.971 116.382L227.471 120.382L227 120.633L226.529 120.382ZM241.5 138.5H213V136.5H241.5V138.5ZM261.733 63.1967C258.315 59.5168 253.035 56.7601 246.923 54.9054C240.796 53.0458 233.746 52.0665 226.696 52.0033C219.647 51.9401 212.562 52.7926 206.365 54.622C200.181 56.4477 194.801 59.2706 191.257 63.2082L191.04 63.4485L191.006 63.77L182.006 147.271L181.961 147.687L182.225 148.011L206.725 178.011L207.026 178.379H207.5H246.5H246.981L247.281 178.003L271.281 148.003L271.541 147.679L271.494 147.266L261.994 63.7641L261.956 63.4375L261.733 63.1967Z" fill="white"/>
</svg>
