<svg width="197" height="750" viewBox="0 0 197 750" fill="none" xmlns="http://www.w3.org/2000/svg">
<g filter="url(#filter0_f_717_553)">
<circle cx="9.55985" cy="464.773" r="7.55985" fill="url(#paint0_radial_717_553)"/>
<ellipse cx="7.55935" cy="7.55985" rx="7.55935" ry="7.55985" transform="matrix(-1 0 0 1 194.382 457.213)" fill="url(#paint1_radial_717_553)"/>
</g>
<path d="M60.4302 428.234L76.1799 412.012H98.2295L98.2295 517.85H86.2597V562.579L66.7301 585.888V651.407L84.9998 674.717V720.706V750L56.6505 720.706L56.1046 676.729L35.2307 651.407V574.549L60.4302 539.899V517.85V490.76H39.6407V525.41L10.0313 502.1L10.0313 480.995L20.741 472.176V458.001L10.0313 449.181V433.431L10.0313 413.272L50.3504 374.843V412.012L39.6407 423.352V451.071H60.4302V441.464L60.4302 428.234Z" fill="url(#paint2_linear_717_553)"/>
<path d="M135.954 428.234L120.205 412.012H98.1571L98.1571 517.85H110.126V562.579L129.654 585.888V651.407L111.386 674.717V720.706V750L139.733 720.706L140.279 676.729L161.152 651.407V574.549L135.954 539.899V517.85V490.76H156.742V525.41L186.35 502.1V480.995L175.641 472.176V458.001L186.35 449.181V433.431V413.272L146.033 374.843V412.012L156.742 423.352V451.071H135.954V441.464V428.234Z" fill="url(#paint3_linear_717_553)"/>
<g filter="url(#filter1_f_717_553)">
<circle cx="97.7561" cy="620.538" r="25.1995" fill="url(#paint4_radial_717_553)"/>
</g>
<rect x="79.1084" y="416.672" width="36.3543" height="15.8797" rx="0.75" fill="black" stroke="black" stroke-width="0.5"/>
<rect x="79.1084" y="463.291" width="36.3543" height="15.8797" rx="0.75" fill="black" stroke="black" stroke-width="0.5"/>
<rect x="76.5889" y="483.45" width="42.3392" height="20.9196" rx="0.75" fill="black" stroke="black" stroke-width="0.5"/>
<rect x="81.0947" y="484.483" width="4.38126" height="17.6961" rx="0.875" fill="black" stroke="#2E2E2E" stroke-width="0.25"/>
<rect x="92.6729" y="484.483" width="4.38126" height="17.6961" rx="0.875" fill="black" stroke="#2E2E2E" stroke-width="0.25"/>
<rect x="104.251" y="484.483" width="4.38126" height="17.6961" rx="0.875" fill="black" stroke="#2E2E2E" stroke-width="0.25"/>
<rect x="110.04" y="484.483" width="4.38126" height="17.6961" rx="0.875" fill="black" stroke="#2E2E2E" stroke-width="0.25"/>
<rect x="86.8838" y="484.483" width="4.38126" height="17.6961" rx="0.875" fill="black" stroke="#2E2E2E" stroke-width="0.25"/>
<rect x="98.4619" y="484.483" width="4.38126" height="17.6961" rx="0.875" fill="black" stroke="#2E2E2E" stroke-width="0.25"/>
<path d="M78.2285 412.642L78.2285 66.1487L86.7732 66.1487L117.666 66.1487L117.666 412.642L78.2285 412.642Z" fill="black"/>
<line x1="78.3105" y1="91.4463" x2="117.602" y2="91.4463" stroke="white"/>
<line x1="78.3105" y1="139.485" x2="117.602" y2="139.485" stroke="white"/>
<line x1="78.3105" y1="160.637" x2="117.602" y2="160.637" stroke="white"/>
<line x1="78.3105" y1="182.147" x2="117.602" y2="182.147" stroke="white"/>
<line x1="78.3105" y1="200.789" x2="117.602" y2="200.789" stroke="white"/>
<line x1="78.3105" y1="219.431" x2="117.602" y2="219.431" stroke="white"/>
<line x1="78.3105" y1="236.639" x2="117.602" y2="236.639" stroke="white"/>
<line x1="78.3105" y1="253.489" x2="117.602" y2="253.489" stroke="white"/>
<line x1="78.3105" y1="268.546" x2="117.602" y2="268.546" stroke="white"/>
<line x1="78.3105" y1="282.885" x2="117.602" y2="282.885" stroke="white"/>
<line x1="78.3105" y1="296.509" x2="117.602" y2="296.509" stroke="white"/>
<line x1="78.3105" y1="309.414" x2="117.602" y2="309.414" stroke="white"/>
<line x1="78.3105" y1="320.887" x2="117.602" y2="320.887" stroke="white"/>
<line x1="78.3105" y1="333.075" x2="117.602" y2="333.075" stroke="white"/>
<line x1="78.3105" y1="343.114" x2="117.602" y2="343.114" stroke="white"/>
<line x1="78.3105" y1="353.152" x2="117.602" y2="353.152" stroke="white"/>
<line x1="78.3105" y1="362.473" x2="117.602" y2="362.473" stroke="white"/>
<line x1="78.3105" y1="371.794" x2="117.602" y2="371.794" stroke="white"/>
<line x1="78.3105" y1="378.964" x2="117.602" y2="378.964" stroke="white"/>
<line x1="78.3105" y1="387.568" x2="117.602" y2="387.568" stroke="white"/>
<line x1="78.3105" y1="394.738" x2="117.602" y2="394.738" stroke="white"/>
<path d="M78.3105 400.974L117.602 400.974" stroke="white"/>
<line x1="78.3105" y1="407.644" x2="117.602" y2="407.644" stroke="white"/>
<line x1="78.3105" y1="115.824" x2="117.602" y2="115.824" stroke="white"/>
<line x1="83.3945" y1="484.46" x2="83.3945" y2="81.2685" stroke="#999999" stroke-width="0.5"/>
<line x1="89.0645" y1="484.46" x2="89.0645" y2="81.2685" stroke="#999999" stroke-width="0.5"/>
<line x1="94.9863" y1="484.46" x2="94.9863" y2="81.2685" stroke="#999999" stroke-width="0.5"/>
<line x1="100.656" y1="484.46" x2="100.656" y2="81.2685" stroke="#999999" stroke-width="0.5"/>
<line x1="106.325" y1="484.46" x2="106.325" y2="81.2685" stroke="#999999" stroke-width="0.5"/>
<line x1="111.997" y1="484.46" x2="111.997" y2="81.2685" stroke="#999999" stroke-width="0.5"/>
<path d="M92.6115 0L92.6115 13.8597L81.5634 23.9395L81.5634 44.7291L92.6115 55.4389L92.6115 62.9987L97.9431 62.9987L97.9431 81.2683L78.1849 81.2683L78.1849 55.4389L70.2236 45.9891L70.2236 22.4861L92.6115 0Z" fill="url(#paint5_radial_717_553)"/>
<path d="M92.6115 0L92.6115 13.8597L81.5634 23.9395L81.5634 44.7291L92.6115 55.4389L92.6115 62.9987L97.9431 62.9987L97.9431 81.2683L78.1849 81.2683L78.1849 55.4389L70.2236 45.9891L70.2236 22.4861L92.6115 0Z" fill="url(#paint6_radial_717_553)"/>
<path d="M78.7294 27.086C78.7294 28.4066 77.6573 29.4774 76.3344 29.4774C75.0115 29.4774 73.9395 28.4066 73.9395 27.086C73.9395 25.7654 75.0115 24.6946 76.3344 24.6946C77.6573 24.6946 78.7294 25.7654 78.7294 27.086Z" fill="black" stroke="#2E2E2E" stroke-width="0.25"/>
<path d="M77.8892 27.0861C77.8892 27.9434 77.1932 28.6387 76.3343 28.6387C75.4753 28.6387 74.7793 27.9434 74.7793 27.0861C74.7793 26.2287 75.4753 25.5334 76.3343 25.5334C77.1932 25.5334 77.8892 26.2287 77.8892 27.0861Z" fill="black" stroke="#2E2E2E" stroke-width="0.25"/>
<path d="M78.7294 34.6387C78.7294 35.9593 77.6573 37.0302 76.3344 37.0302C75.0115 37.0302 73.9395 35.9593 73.9395 34.6387C73.9395 33.3182 75.0115 32.2473 76.3344 32.2473C77.6573 32.2473 78.7294 33.3182 78.7294 34.6387Z" fill="black" stroke="#2E2E2E" stroke-width="0.25"/>
<path d="M77.8892 34.6388C77.8892 35.4961 77.1932 36.1914 76.3343 36.1914C75.4753 36.1914 74.7793 35.4961 74.7793 34.6388C74.7793 33.7815 75.4753 33.0862 76.3343 33.0862C77.1932 33.0862 77.8892 33.7815 77.8892 34.6388Z" fill="black" stroke="#2E2E2E" stroke-width="0.25"/>
<path d="M78.7294 42.1916C78.7294 43.5122 77.6573 44.583 76.3344 44.583C75.0115 44.583 73.9395 43.5122 73.9395 42.1916C73.9395 40.871 75.0115 39.8002 76.3344 39.8002C77.6573 39.8002 78.7294 40.871 78.7294 42.1916Z" fill="black" stroke="#2E2E2E" stroke-width="0.25"/>
<path d="M77.8892 42.1917C77.8892 43.049 77.1932 43.7443 76.3343 43.7443C75.4753 43.7443 74.7793 43.049 74.7793 42.1917C74.7793 41.3343 75.4753 40.639 76.3343 40.639C77.1932 40.639 77.8892 41.3343 77.8892 42.1917Z" fill="black" stroke="#2E2E2E" stroke-width="0.25"/>
<path d="M83.2666 81.2683L76.3367 44.729" stroke="#999999" stroke-width="0.5"/>
<path d="M88.936 81.2683L76.9664 37.1692" stroke="#999999" stroke-width="0.5"/>
<path d="M95.2363 81.2682L76.966 29.6093" stroke="#999999" stroke-width="0.5"/>
<path d="M103.226 -2.48193e-06L103.226 13.8597L114.274 23.9395L114.274 44.7291L103.226 55.4389L103.226 62.9987L97.8953 62.9987L97.8953 81.2683L117.652 81.2683L117.652 55.4389L125.612 45.9891L125.612 22.4861L103.226 -2.48193e-06Z" fill="url(#paint7_radial_717_553)"/>
<path d="M103.226 -2.48193e-06L103.226 13.8597L114.274 23.9395L114.274 44.7291L103.226 55.4389L103.226 62.9987L97.8953 62.9987L97.8953 81.2683L117.652 81.2683L117.652 55.4389L125.612 45.9891L125.612 22.4861L103.226 -2.48193e-06Z" fill="url(#paint8_radial_717_553)"/>
<path d="M117.106 27.0861C117.106 28.4067 118.178 29.4776 119.501 29.4776C120.824 29.4776 121.896 28.4067 121.896 27.0861C121.896 25.7655 120.824 24.6947 119.501 24.6947C118.178 24.6947 117.106 25.7655 117.106 27.0861Z" fill="black" stroke="#2E2E2E" stroke-width="0.25"/>
<path d="M117.947 27.0862C117.947 27.9435 118.643 28.6388 119.502 28.6388C120.361 28.6388 121.057 27.9435 121.057 27.0862C121.057 26.2289 120.361 25.5336 119.502 25.5336C118.643 25.5336 117.947 26.2289 117.947 27.0862Z" fill="black" stroke="#2E2E2E" stroke-width="0.25"/>
<path d="M117.106 34.639C117.106 35.9596 118.178 37.0304 119.501 37.0304C120.824 37.0304 121.896 35.9596 121.896 34.639C121.896 33.3184 120.824 32.2476 119.501 32.2476C118.178 32.2476 117.106 33.3184 117.106 34.639Z" fill="black" stroke="#2E2E2E" stroke-width="0.25"/>
<path d="M117.947 34.6389C117.947 35.4963 118.643 36.1915 119.502 36.1915C120.361 36.1915 121.057 35.4963 121.057 34.6389C121.057 33.7816 120.361 33.0863 119.502 33.0863C118.643 33.0863 117.947 33.7816 117.947 34.6389Z" fill="black" stroke="#2E2E2E" stroke-width="0.25"/>
<path d="M117.106 42.1915C117.106 43.5121 118.178 44.5829 119.501 44.5829C120.824 44.5829 121.896 43.5121 121.896 42.1915C121.896 40.8709 120.824 39.8 119.501 39.8C118.178 39.8 117.106 40.8709 117.106 42.1915Z" fill="black" stroke="#2E2E2E" stroke-width="0.25"/>
<path d="M117.947 42.1915C117.947 43.0489 118.643 43.7441 119.502 43.7441C120.361 43.7441 121.057 43.0489 121.057 42.1915C121.057 41.3342 120.361 40.6389 119.502 40.6389C118.643 40.6389 117.947 41.3342 117.947 42.1915Z" fill="black" stroke="#2E2E2E" stroke-width="0.25"/>
<path d="M112.569 81.2684L119.499 44.7292" stroke="#999999" stroke-width="0.5"/>
<path d="M106.898 81.2686L118.867 37.1694" stroke="#999999" stroke-width="0.5"/>
<path d="M100.6 81.2684L118.868 29.6096" stroke="#999999" stroke-width="0.5"/>
<g filter="url(#filter2_f_717_553)">
<ellipse cx="12.5989" cy="12.5997" rx="12.5989" ry="12.5997" transform="matrix(-1 0 0 1 110.355 22.0496)" fill="url(#paint9_radial_717_553)"/>
</g>
<defs>
<filter id="filter0_f_717_553" x="0" y="455.213" width="196.382" height="19.1196" filterUnits="userSpaceOnUse" color-interpolation-filters="sRGB">
<feFlood flood-opacity="0" result="BackgroundImageFix"/>
<feBlend mode="normal" in="SourceGraphic" in2="BackgroundImageFix" result="shape"/>
<feGaussianBlur stdDeviation="1" result="effect1_foregroundBlur_717_553"/>
</filter>
<filter id="filter1_f_717_553" x="68.5566" y="591.338" width="58.3994" height="58.3989" filterUnits="userSpaceOnUse" color-interpolation-filters="sRGB">
<feFlood flood-opacity="0" result="BackgroundImageFix"/>
<feBlend mode="normal" in="SourceGraphic" in2="BackgroundImageFix" result="shape"/>
<feGaussianBlur stdDeviation="2" result="effect1_foregroundBlur_717_553"/>
</filter>
<filter id="filter2_f_717_553" x="82.1572" y="19.0496" width="31.1982" height="31.1995" filterUnits="userSpaceOnUse" color-interpolation-filters="sRGB">
<feFlood flood-opacity="0" result="BackgroundImageFix"/>
<feBlend mode="normal" in="SourceGraphic" in2="BackgroundImageFix" result="shape"/>
<feGaussianBlur stdDeviation="1.5" result="effect1_foregroundBlur_717_553"/>
</filter>
<radialGradient id="paint0_radial_717_553" cx="0" cy="0" r="1" gradientUnits="userSpaceOnUse" gradientTransform="translate(9.55985 464.773) rotate(90) scale(7.55985)">
<stop stop-color="#00E0FF"/>
<stop offset="1" stop-color="#7000FF"/>
</radialGradient>
<radialGradient id="paint1_radial_717_553" cx="0" cy="0" r="1" gradientUnits="userSpaceOnUse" gradientTransform="translate(7.55935 7.55985) rotate(90) scale(7.55985 7.55935)">
<stop stop-color="#00E0FF"/>
<stop offset="1" stop-color="#7000FF"/>
</radialGradient>
<linearGradient id="paint2_linear_717_553" x1="55.9227" y1="406.342" x2="43.3421" y2="738.618" gradientUnits="userSpaceOnUse">
<stop stop-color="#494949"/>
<stop offset="0.4375" stop-color="#1C1212"/>
<stop offset="1" stop-color="#494949"/>
</linearGradient>
<linearGradient id="paint3_linear_717_553" x1="140.461" y1="406.342" x2="153.043" y2="738.618" gradientUnits="userSpaceOnUse">
<stop stop-color="#494949"/>
<stop offset="0.4375" stop-color="#1C1212"/>
<stop offset="1" stop-color="#494949"/>
</linearGradient>
<radialGradient id="paint4_radial_717_553" cx="0" cy="0" r="1" gradientUnits="userSpaceOnUse" gradientTransform="translate(97.7561 620.538) rotate(90) scale(25.1995)">
<stop stop-color="#00E0FF"/>
<stop offset="1" stop-color="#7000FF"/>
</radialGradient>
<radialGradient id="paint5_radial_717_553" cx="0" cy="0" r="1" gradientUnits="userSpaceOnUse" gradientTransform="translate(84.0834 40.6342) rotate(90) scale(40.6342 13.8597)">
<stop stop-color="#494949"/>
<stop offset="1" stop-color="#1C1212"/>
</radialGradient>
<radialGradient id="paint6_radial_717_553" cx="0" cy="0" r="1" gradientUnits="userSpaceOnUse" gradientTransform="translate(84.0834 40.6342) rotate(90) scale(40.6342 13.8597)">
<stop stop-color="#494949"/>
<stop offset="1" stop-color="#1C1212"/>
</radialGradient>
<radialGradient id="paint7_radial_717_553" cx="0" cy="0" r="1" gradientUnits="userSpaceOnUse" gradientTransform="translate(111.754 40.6342) rotate(90) scale(40.6342 13.8585)">
<stop stop-color="#494949"/>
<stop offset="1" stop-color="#1C1212"/>
</radialGradient>
<radialGradient id="paint8_radial_717_553" cx="0" cy="0" r="1" gradientUnits="userSpaceOnUse" gradientTransform="translate(111.754 40.6342) rotate(90) scale(40.6342 13.8585)">
<stop stop-color="#494949"/>
<stop offset="1" stop-color="#1C1212"/>
</radialGradient>
<radialGradient id="paint9_radial_717_553" cx="0" cy="0" r="1" gradientUnits="userSpaceOnUse" gradientTransform="translate(12.5989 12.5997) rotate(90) scale(12.5997 12.5989)">
<stop stop-color="#00E0FF"/>
<stop offset="1" stop-color="#7000FF"/>
</radialGradient>
</defs>
</svg>
