<svg width="154" height="701" viewBox="0 0 154 701" fill="none" xmlns="http://www.w3.org/2000/svg">
<path d="M125.055 451.264C125.814 452.213 121.755 446.37 99.4475 415.413H67.0109L34.0055 460.369C27.9439 471.788 19.3349 482.579 7.82872 492.805C8.1005 516.633 9.90938 529.955 14.0884 553.695C23.2241 528.544 28.2076 514.264 41.5547 494.513C46.8376 520.039 43.5629 544.227 35.7126 581.01C25.4391 625.512 21.1925 649.238 1 699.943L54.4911 648.159C53.4837 615.097 53.4346 597.221 58.4745 571.905L67.5795 566.783C71.3103 599.639 65.6583 626.892 56.1983 670.921L96.6022 617.999C93.3114 590.992 91.5679 575.897 93.7569 551.419L100.585 545.728C105.963 575.846 106.905 596.434 104 642.468C114.936 616.585 120.208 603.965 127.9 588.977V588.407C120.807 570.223 120.176 557.231 116.519 533.778L121.072 529.794C133.623 546.881 136.581 563.612 134.16 613.446C133.781 614.964 137.005 604 152.939 548.004C133.079 518.831 127.047 495.366 125.055 451.264Z" fill="url(#paint0_linear_711_5)"/>
<path d="M121.072 529.794C133.623 546.881 136.581 563.612 134.16 613.446C133.781 614.964 137.005 604 152.939 548.004C133.079 518.831 127.047 495.366 125.055 451.264C125.814 452.213 121.755 446.37 99.4475 415.413H67.0109L34.0055 460.369C27.9439 471.788 19.3349 482.579 7.82872 492.805C8.1005 516.633 9.90938 529.955 14.0884 553.695C23.2241 528.544 28.2076 514.264 41.5547 494.513C46.8376 520.039 43.5629 544.227 35.7126 581.01C25.4391 625.512 21.1925 649.238 1 699.943L54.4911 648.159C53.4837 615.097 53.4346 597.221 58.4745 571.905L67.5795 566.783C71.3103 599.639 65.6583 626.892 56.1983 670.921L96.6022 617.999C93.3114 590.992 91.5679 575.897 93.7569 551.419L100.585 545.728C105.963 575.846 106.905 596.434 104 642.468C114.936 616.585 120.208 603.965 127.9 588.977V588.407C120.807 570.223 120.176 557.231 116.519 533.778M121.072 529.794C121.072 529.794 121.072 529.794 116.519 533.778M121.072 529.794L116.519 533.778" stroke="black" stroke-width="0.25"/>
<path d="M14.0884 554.264L11.5273 539.468L37.9885 489.391L41.6306 494.171C28.2836 513.923 23.2241 529.113 14.0884 554.264Z" fill="black" fill-opacity="0.4"/>
<path d="M153.087 548.004C137.153 604 133.917 614.963 134.297 613.446C139.418 561.092 150.663 567.921 130.177 523.534L135.867 516.137L153.087 548.004Z" fill="black" fill-opacity="0.4"/>
<path d="M128.014 588.407C120.92 570.223 120.289 557.231 116.632 533.778L112.649 538.33C118.028 568.448 123.461 586.7 104.113 642.468C115.049 616.584 120.321 603.965 128.014 588.976V588.407Z" fill="black" fill-opacity="0.4"/>
<path d="M96.8306 617.998C93.5399 590.992 91.7964 575.896 93.9853 551.418L86.5869 557.109C91.1394 611.17 88.2941 612.308 56.4268 670.921L96.8306 617.998Z" fill="black" fill-opacity="0.4"/>
<path d="M54.6171 648.216C53.6097 615.154 53.5606 597.278 58.6005 571.962L51.2032 577.652C47.0425 642.852 30.3496 670.635 1.12598 700L54.6171 648.216Z" fill="black" fill-opacity="0.4"/>
<path d="M122.783 518.413C122.783 520.551 121.147 522.272 119.145 522.272C117.142 522.272 115.506 520.551 115.506 518.413C115.506 516.276 117.142 514.555 119.145 514.555C121.147 514.555 122.783 516.276 122.783 518.413Z" fill="black" stroke="#2E2E2E" stroke-width="0.25"/>
<path d="M121.531 518.413C121.531 519.818 120.457 520.944 119.147 520.944C117.837 520.944 116.763 519.818 116.763 518.413C116.763 517.009 117.837 515.883 119.147 515.883C120.457 515.883 121.531 517.009 121.531 518.413Z" fill="black" stroke="#2E2E2E" stroke-width="0.25"/>
<path d="M115.954 497.927C115.954 500.065 114.318 501.785 112.315 501.785C110.312 501.785 108.677 500.065 108.677 497.927C108.677 495.789 110.312 494.069 112.315 494.069C114.318 494.069 115.954 495.789 115.954 497.927Z" fill="black" stroke="#2E2E2E" stroke-width="0.25"/>
<path d="M114.702 497.927C114.702 499.331 113.628 500.458 112.318 500.458C111.008 500.458 109.934 499.331 109.934 497.927C109.934 496.523 111.008 495.396 112.318 495.396C113.628 495.396 114.702 496.523 114.702 497.927Z" fill="black" stroke="#2E2E2E" stroke-width="0.25"/>
<path d="M119.369 508.17C119.369 510.308 117.733 512.028 115.73 512.028C113.727 512.028 112.092 510.308 112.092 508.17C112.092 506.032 113.727 504.312 115.73 504.312C117.733 504.312 119.369 506.032 119.369 508.17Z" fill="black" stroke="#2E2E2E" stroke-width="0.25"/>
<path d="M118.116 508.17C118.116 509.575 117.042 510.701 115.732 510.701C114.422 510.701 113.348 509.575 113.348 508.17C113.348 506.766 114.422 505.64 115.732 505.64C117.042 505.64 118.116 506.766 118.116 508.17Z" fill="black" stroke="#2E2E2E" stroke-width="0.25"/>
<path d="M67.1387 415.413L67.1387 139.988L74.1283 139.988L99.3985 139.988L99.3985 415.413L67.1387 415.413Z" fill="#1C0500"/>
<line x1="67.6758" y1="159.975" x2="98.8603" y2="159.975" stroke="white"/>
<line x1="67.6758" y1="198.102" x2="98.8603" y2="198.102" stroke="white"/>
<line x1="67.6758" y1="214.889" x2="98.8603" y2="214.889" stroke="white"/>
<line x1="67.6758" y1="231.961" x2="98.8603" y2="231.961" stroke="white"/>
<line x1="67.6758" y1="246.756" x2="98.8603" y2="246.756" stroke="white"/>
<line x1="67.6758" y1="261.552" x2="98.8603" y2="261.552" stroke="white"/>
<line x1="67.6758" y1="275.209" x2="98.8603" y2="275.209" stroke="white"/>
<line x1="67.6758" y1="288.582" x2="98.8603" y2="288.582" stroke="white"/>
<line x1="67.6758" y1="300.532" x2="98.8603" y2="300.532" stroke="white"/>
<line x1="67.6758" y1="311.913" x2="98.8603" y2="311.913" stroke="white"/>
<line x1="67.6758" y1="322.726" x2="98.8603" y2="322.726" stroke="white"/>
<line x1="67.6758" y1="332.969" x2="98.8603" y2="332.969" stroke="white"/>
<line x1="67.6758" y1="342.074" x2="98.8603" y2="342.074" stroke="white"/>
<line x1="67.6758" y1="351.748" x2="98.8603" y2="351.748" stroke="white"/>
<line x1="67.6758" y1="359.714" x2="98.8603" y2="359.714" stroke="white"/>
<line x1="67.6758" y1="367.681" x2="98.8603" y2="367.681" stroke="white"/>
<line x1="67.6758" y1="375.079" x2="98.8603" y2="375.079" stroke="white"/>
<line x1="67.6758" y1="382.477" x2="98.8603" y2="382.477" stroke="white"/>
<line x1="67.6758" y1="388.167" x2="98.8603" y2="388.167" stroke="white"/>
<line x1="67.6758" y1="394.996" x2="98.8603" y2="394.996" stroke="white"/>
<line x1="67.6758" y1="400.687" x2="98.8603" y2="400.687" stroke="white"/>
<path d="M67.6758 405.739L98.8603 405.739" stroke="white"/>
<line x1="67.6758" y1="410.93" x2="98.8603" y2="410.93" stroke="white"/>
<line x1="67.6758" y1="179.323" x2="98.8603" y2="179.323" stroke="white"/>
<path d="M83.2678 192.342L94.9086 186.367L71.627 186.367L83.2678 192.342Z" fill="white"/>
<path d="M83.2678 226.485L94.9086 220.51L71.627 220.51L83.2678 226.485Z" fill="white"/>
<path d="M83.2678 257.215L94.9086 251.24L71.627 251.24L83.2678 257.215Z" fill="white"/>
<path d="M83.2678 285.668L94.9086 279.693L71.627 279.693L83.2678 285.668Z" fill="white"/>
<path d="M82.6539 319.811L90.9687 315.543L74.339 315.543L82.6539 319.811Z" fill="white"/>
<path d="M82.6539 349.402L90.9687 345.134L74.339 345.134L82.6539 349.402Z" fill="white"/>
<path d="M82.6539 365.905L90.9687 361.637L74.339 361.637L82.6539 365.905Z" fill="white"/>
<path d="M82.3487 380.701L88.5369 377.524L76.1604 377.524L82.3487 380.701Z" fill="white"/>
<path d="M82.3487 393.22L88.5369 390.044L76.1604 390.044L82.3487 393.22Z" fill="white"/>
<path d="M83.2293 409.723L87.3867 407.589L79.0719 407.589L83.2293 409.723Z" fill="white"/>
<rect x="67.1816" y="132.022" width="32.2657" height="7.96684" fill="black"/>
<path d="M67.1054 132.022C78.3921 65.4419 49.9391 101.862 43.1104 0L113.674 92.1877C94.9535 108.913 102.293 117.795 99.7339 132.022L67.1054 132.022Z" fill="url(#paint1_linear_711_5)"/>
<path d="M59.0488 26.7458C59.0488 28.8835 57.4131 30.6042 55.4101 30.6042C53.4072 30.6042 51.7715 28.8835 51.7715 26.7458C51.7715 24.6081 53.4072 22.8874 55.4101 22.8874C57.4131 22.8874 59.0488 24.6081 59.0488 26.7458Z" fill="black" stroke="#2E2E2E" stroke-width="0.25"/>
<path d="M57.7955 26.7458C57.7955 28.1502 56.7216 29.2764 55.4114 29.2764C54.1013 29.2764 53.0273 28.1502 53.0273 26.7458C53.0273 25.3414 54.1013 24.2152 55.4114 24.2152C56.7216 24.2152 57.7955 25.3414 57.7955 26.7458Z" fill="black" stroke="#2E2E2E" stroke-width="0.25"/>
<path d="M68.1543 39.2651C68.1543 41.4028 66.5186 43.1235 64.5156 43.1235C62.5126 43.1235 60.877 41.4028 60.877 39.2651C60.877 37.1274 62.5126 35.4067 64.5156 35.4067C66.5186 35.4067 68.1543 37.1274 68.1543 39.2651Z" fill="black" stroke="#2E2E2E" stroke-width="0.25"/>
<path d="M66.901 39.2651C66.901 40.6695 65.827 41.7957 64.5169 41.7957C63.2068 41.7957 62.1328 40.6695 62.1328 39.2651C62.1328 37.8607 63.2068 36.7345 64.5169 36.7345C65.827 36.7345 66.901 37.8607 66.901 39.2651Z" fill="black" stroke="#2E2E2E" stroke-width="0.25"/>
<path d="M77.2587 50.6463C77.2587 52.784 75.6231 54.5047 73.6201 54.5047C71.6171 54.5047 69.9814 52.784 69.9814 50.6463C69.9814 48.5086 71.6171 46.7879 73.6201 46.7879C75.6231 46.7879 77.2587 48.5086 77.2587 50.6463Z" fill="black" stroke="#2E2E2E" stroke-width="0.25"/>
<path d="M76.0055 50.6463C76.0055 52.0507 74.9315 53.1769 73.6214 53.1769C72.3113 53.1769 71.2373 52.0507 71.2373 50.6463C71.2373 49.2419 72.3113 48.1157 73.6214 48.1157C74.9315 48.1157 76.0055 49.2419 76.0055 50.6463Z" fill="black" stroke="#2E2E2E" stroke-width="0.25"/>
<path d="M86.3642 63.1656C86.3642 65.3033 84.7285 67.024 82.7256 67.024C80.7226 67.024 79.0869 65.3033 79.0869 63.1656C79.0869 61.0279 80.7226 59.3072 82.7256 59.3072C84.7285 59.3072 86.3642 61.0279 86.3642 63.1656Z" fill="black" stroke="#2E2E2E" stroke-width="0.25"/>
<path d="M85.111 63.1656C85.111 64.57 84.037 65.6962 82.7269 65.6962C81.4168 65.6962 80.3428 64.57 80.3428 63.1656C80.3428 61.7612 81.4168 60.635 82.7269 60.635C84.037 60.635 85.111 61.7612 85.111 63.1656Z" fill="black" stroke="#2E2E2E" stroke-width="0.25"/>
<path d="M95.4677 73.4087C95.4677 75.5464 93.8321 77.2671 91.8291 77.2671C89.8261 77.2671 88.1904 75.5464 88.1904 73.4087C88.1904 71.271 89.8261 69.5503 91.8291 69.5503C93.8321 69.5503 95.4677 71.271 95.4677 73.4087Z" fill="black" stroke="#2E2E2E" stroke-width="0.25"/>
<path d="M94.2145 73.4087C94.2145 74.8131 93.1405 75.9393 91.8304 75.9393C90.5203 75.9393 89.4463 74.8131 89.4463 73.4087C89.4463 72.0043 90.5203 70.8781 91.8304 70.8781C93.1405 70.8781 94.2145 72.0043 94.2145 73.4087Z" fill="black" stroke="#2E2E2E" stroke-width="0.25"/>
<path d="M104.573 87.0662C104.573 89.204 102.938 90.9247 100.935 90.9247C98.9316 90.9247 97.2959 89.204 97.2959 87.0662C97.2959 84.9285 98.9316 83.2078 100.935 83.2078C102.938 83.2078 104.573 84.9285 104.573 87.0662Z" fill="black" stroke="#2E2E2E" stroke-width="0.25"/>
<path d="M103.32 87.0663C103.32 88.4707 102.246 89.5969 100.936 89.5969C99.6257 89.5969 98.5518 88.4707 98.5518 87.0663C98.5518 85.6619 99.6257 84.5356 100.936 84.5356C102.246 84.5356 103.32 85.6619 103.32 87.0663Z" fill="black" stroke="#2E2E2E" stroke-width="0.25"/>
<rect x="63.2773" y="430.459" width="38.1961" height="17.7099" rx="0.75" fill="black" stroke="black" stroke-width="0.5"/>
<rect x="63.2773" y="473.707" width="38.1961" height="17.7099" rx="0.75" fill="black" stroke="black" stroke-width="0.5"/>
<rect x="63.2773" y="503.299" width="39.3342" height="20.5552" rx="0.75" fill="black" stroke="black" stroke-width="0.5"/>
<rect x="67.459" y="504.312" width="4.0564" height="17.3909" rx="0.875" fill="black" stroke="#2E2E2E" stroke-width="0.25"/>
<rect x="78.2246" y="504.312" width="4.0564" height="17.3909" rx="0.875" fill="black" stroke="#2E2E2E" stroke-width="0.25"/>
<rect x="88.9912" y="504.312" width="4.0564" height="17.3909" rx="0.875" fill="black" stroke="#2E2E2E" stroke-width="0.25"/>
<rect x="94.374" y="504.312" width="4.0564" height="17.3909" rx="0.875" fill="black" stroke="#2E2E2E" stroke-width="0.25"/>
<rect x="72.8418" y="504.312" width="4.0564" height="17.3909" rx="0.875" fill="black" stroke="#2E2E2E" stroke-width="0.25"/>
<rect x="83.6084" y="504.312" width="4.0564" height="17.3909" rx="0.875" fill="black" stroke="#2E2E2E" stroke-width="0.25"/>
<line x1="69.5784" y1="140.022" x2="54.8129" y2="30.7627" stroke="#999999" stroke-width="0.5"/>
<line x1="74.9544" y1="140.014" x2="65.0548" y2="43.274" stroke="#999999" stroke-width="0.5"/>
<line x1="80.3298" y1="140.007" x2="74.159" y2="54.6478" stroke="#999999" stroke-width="0.5"/>
<line x1="85.7073" y1="140.001" x2="82.1263" y2="67.1614" stroke="#999999" stroke-width="0.5"/>
<line x1="91.083" y1="139.988" x2="91.2308" y2="77.3916" stroke="#999999" stroke-width="0.5"/>
<line x1="96.4604" y1="139.975" x2="99.1978" y2="91.0356" stroke="#999999" stroke-width="0.5"/>
<line x1="69.5762" y1="504.187" x2="69.5762" y2="139.989" stroke="#999999" stroke-width="0.5"/>
<line x1="74.9531" y1="504.187" x2="74.9531" y2="139.989" stroke="#999999" stroke-width="0.5"/>
<line x1="80.3291" y1="504.187" x2="80.3291" y2="139.989" stroke="#999999" stroke-width="0.5"/>
<line x1="85.707" y1="504.187" x2="85.707" y2="139.989" stroke="#999999" stroke-width="0.5"/>
<line x1="91.083" y1="504.187" x2="91.083" y2="139.989" stroke="#999999" stroke-width="0.5"/>
<line x1="96.46" y1="504.187" x2="96.46" y2="139.989" stroke="#999999" stroke-width="0.5"/>
<defs>
<linearGradient id="paint0_linear_711_5" x1="76.9696" y1="415.413" x2="76.9696" y2="699.943" gradientUnits="userSpaceOnUse">
<stop stop-color="#28C600"/>
<stop offset="1" stop-color="#68FF5B"/>
</linearGradient>
<linearGradient id="paint1_linear_711_5" x1="78.3921" y1="132.022" x2="78.3921" y2="0" gradientUnits="userSpaceOnUse">
<stop stop-color="#28C600"/>
<stop offset="1" stop-color="#68FF5B"/>
</linearGradient>
</defs>
</svg>
